<?xml version="1.0" encoding="utf-8"?>
<!-- Generator: Adobe Illustrator 24.1.0, SVG Export Plug-In . SVG Version: 6.00 Build 0)  -->
<svg version="1.1" xmlns="http://www.w3.org/2000/svg" xmlns:xlink="http://www.w3.org/1999/xlink" x="0px" y="0px"
	 viewBox="0 0 34 34" style="enable-background:new 0 0 34 34;" xml:space="preserve">
<style type="text/css">
	.st0{fill:#176385;}
</style>
<g id="Capa_1">
</g>
<g id="Capa_2">
</g>
<g id="Capa_3">
	<path class="st0" d="M33.7,16.5c0,9.2-7.4,16.6-16.7,16.6c-9.2,0-16.5-7.4-16.6-16.3C0.2,7.4,7.8-0.1,17-0.1
		C26.2-0.1,33.7,7.3,33.7,16.5z M18.6,27.2c0-3.6,0-7.2,0-10.8c1,0,2,0,3,0c0.1-1.2,0.2-2.4,0.3-3.6c-1.2,0-2.2,0-3.3,0v-0.1
		c0-0.8,0-1.7,0-2.5c0-0.5,0.2-0.7,0.7-0.7c0.4,0,0.8,0,1.2,0c0.4,0,0.9,0,1.3,0c0-1.2,0-2.5,0-3.8c-1.4,0-2.8,0-4.2,0.2
		c-0.8,0.1-1.6,0.3-2.1,0.8c-0.7,0.6-1.1,1.4-1.2,2.4c-0.1,0.8-0.1,1.7-0.1,2.6c0,0.3,0,0.7,0,1.1c-0.7,0-1.5,0-2.2,0
		c0,1.2,0,2.4,0,3.6c0.7,0,1.5,0,2.2,0c0,3.6,0,7.1,0,10.7C15.7,27.2,17.1,27.2,18.6,27.2z"/>
</g>
<g id="Capa_4">
</g>
<g id="Capa_5">
</g>
</svg>
