<?xml version="1.0" encoding="utf-8"?>
<!-- Generator: Adobe Illustrator 24.1.0, SVG Export Plug-In . SVG Version: 6.00 Build 0)  -->
<svg version="1.1" xmlns="http://www.w3.org/2000/svg" xmlns:xlink="http://www.w3.org/1999/xlink" x="0px" y="0px"
	 viewBox="0 0 34 34" style="enable-background:new 0 0 34 34;" xml:space="preserve">
<style type="text/css">
	.st0{fill:#176385;}
</style>
<g id="Capa_1">
</g>
<g id="Capa_2">
</g>
<g id="Capa_3">
</g>
<g id="Capa_4">
</g>
<g id="Capa_5">
	<path class="st0" d="M17.3,0.4c9.3,0,16.9,7.6,16.9,16.9s-7.6,16.9-16.9,16.9C8,34.1,0.4,26.5,0.4,17.2S8,0.4,17.3,0.4z M6.9,17.2
		C7,18,7,18.6,7,19.4c0,1.1,0,2.4,0.2,3.5c0.4,2.2,1.6,3.6,3.8,4.3c0.9,0.3,1.8,0.4,2.6,0.4c2.3,0,4.5,0,6.8,0
		c0.9,0,1.8-0.1,2.6-0.2c2.3-0.4,3.8-1.7,4.5-3.9c0.3-0.8,0.3-1.7,0.3-2.6c0-1.8,0-3.7,0-5.5c0-1.3,0-2.6-0.2-3.8
		c-0.3-2.1-1.5-3.5-3.4-4.3c-0.9-0.3-1.9-0.5-2.9-0.5c-2,0-3.9-0.1-5.9,0c-1.1,0-2.2,0.1-3.2,0.2c-1,0.1-2,0.5-2.8,1.1
		c-1.3,1-2,2.5-2.2,4.1C6.9,13.9,6.9,15.5,6.9,17.2z"/>
	<path class="st0" d="M25.8,17.2c0,1.4-0.1,2.8-0.1,4.2c0,0.6-0.1,1.2-0.3,1.8c-0.5,1.3-1.5,2.1-2.9,2.3c-1,0.1-2,0.1-3,0.1
		c-1.8,0-3.6,0-5.5,0c-0.7,0-1.3-0.1-2-0.2c-1.7-0.3-2.8-1.3-3-3.1c-0.1-0.9-0.1-2-0.1-3c0-2.2,0-4.4,0.1-6.6c0-0.5,0.1-1.1,0.3-1.7
		c0.5-1.3,1.5-2.1,2.9-2.3c0.9-0.1,1.7-0.1,2.6-0.1c2.3,0,4.7,0,6.9,0.1c0.6,0,1.1,0.1,1.7,0.3c1.3,0.5,2.1,1.5,2.3,2.9
		c0.1,1,0.1,2,0.1,3C25.8,15.7,25.8,16.5,25.8,17.2C25.8,17.2,25.8,17.2,25.8,17.2z M22.6,17.3c0.1-2.9-2.3-5.3-5.3-5.4
		c-3-0.1-5.4,2.3-5.4,5.3c-0.1,3,2.3,5.3,5.3,5.4C20.1,22.6,22.5,20.3,22.6,17.3z M22.8,12.9c0.7,0,1.3-0.5,1.3-1.2
		c0-0.7-0.5-1.3-1.2-1.3c-0.7,0-1.2,0.5-1.2,1.2C21.6,12.4,22.1,12.9,22.8,12.9z"/>
	<path class="st0" d="M17.3,13.8c1.9,0,3.4,1.6,3.4,3.4c0,1.9-1.6,3.4-3.4,3.4c-1.9,0-3.5-1.6-3.4-3.4
		C13.8,15.3,15.4,13.8,17.3,13.8z"/>
</g>
</svg>
