<?xml version="1.0" encoding="utf-8"?>
<!-- Generator: Adobe Illustrator 24.1.0, SVG Export Plug-In . SVG Version: 6.00 Build 0)  -->
<svg version="1.1" xmlns="http://www.w3.org/2000/svg" xmlns:xlink="http://www.w3.org/1999/xlink" x="0px" y="0px"
	 viewBox="0 0 34 34" style="enable-background:new 0 0 34 34;" xml:space="preserve">
<style type="text/css">
	.st0{fill:#176385;}
</style>
<g id="Capa_1">
</g>
<g id="Capa_2">
</g>
<g id="Capa_3">
</g>
<g id="Capa_4">
	<path class="st0" d="M17.1,34.2c-9.6,0-17.2-7.7-17.2-17.4c0.1-9.5,7.7-17,17.3-17c9.6,0,17.2,7.7,17.1,17.4
		C34.3,26.6,26.5,34.2,17.1,34.2z M18.8,14.2c-0.3-1.3-1-1.5-4-0.9c0,3.5,0,7.1,0,10.8c1.4,0,2.7,0,4.2,0c0-1.8,0-3.5,0-5.2
		c0-1.1,0-2.4,1.5-2.5c1.6,0,1.5,1.3,1.5,2.4c0,1.8,0,3.5,0,5.2c1.5,0,2.8,0,4.2,0c0-2.7,0.2-5.2-0.1-7.8c-0.3-2.5-1.6-3.5-4.1-3.3
		C21,13.1,20,13.7,18.8,14.2z M12,13c-1,0-1.9,0.1-2.8,0c-1.1-0.1-1.5,0.3-1.5,1.5c0.1,2.8,0,5.6,0,8.3c0,0.4,0.2,0.8,0.2,1.1
		c1.5,0,2.7,0,4,0C12,20.4,12,16.8,12,13z M10,11.4c1.1-0.1,2-0.6,2-1.9c0-1.3-0.8-1.9-2-2C8.8,7.4,7.7,8.4,7.8,9.4
		C7.9,10.7,8.6,11.3,10,11.4z"/>
</g>
<g id="Capa_5">
</g>
</svg>
