<?xml version="1.0" encoding="utf-8"?>
<!-- Generator: Adobe Illustrator 24.1.0, SVG Export Plug-In . SVG Version: 6.00 Build 0)  -->
<svg version="1.1" xmlns="http://www.w3.org/2000/svg" xmlns:xlink="http://www.w3.org/1999/xlink" x="0px" y="0px"
	 viewBox="0 0 34 34" style="enable-background:new 0 0 34 34;" xml:space="preserve">
<style type="text/css">
	.st0{fill:#176385;}
</style>
<g id="Capa_1">
	<path class="st0" d="M18.2,34.1c-0.8,0-1.6,0-2.4,0c-0.4-0.1-0.8-0.1-1.2-0.1c-3.4-0.5-6.3-1.8-8.8-4C1.2,25.8-0.7,20.7,0,14.6
		c0.4-3.3,1.8-6.2,3.9-8.7c2.7-3.1,6-5,10-5.8c0.5-0.1,1.2-0.2,1.7-0.3c0.8,0,1.6,0,2.5,0c0.5,0.1,1.1,0.1,1.6,0.2
		c3.2,0.5,6,1.9,8.4,3.9c3.1,2.7,4.9,6,5.7,10c0.1,0.6,0.2,1.2,0.3,1.8c0,0.8,0,1.6,0,2.4c-0.1,0.5-0.1,1.1-0.2,1.6
		c-0.7,3.8-2.4,7.1-5.3,9.7c-2.5,2.3-5.4,3.7-8.6,4.3C19.4,34,18.8,34.1,18.2,34.1z M16.5,9.5c-2.1,0.1-4.7,0.2-7.2,0.4
		c-1.4,0.1-2.3,1-2.5,2.3c-0.2,1.2-0.3,2.5-0.3,3.7c-0.1,1.9,0,3.9,0.3,5.8c0.2,1.2,0.8,2,1.9,2.3c0.5,0.1,1,0.2,1.4,0.2
		c1.6,0.1,3.2,0.2,4.8,0.2c3.3,0.1,6.7,0.1,9.9-0.3c1.4-0.1,2.3-0.9,2.6-2.3c0.2-1.3,0.3-2.6,0.3-4c0.1-1.9,0-3.7-0.3-5.5
		c-0.2-1.4-1-2.3-2.3-2.5c-0.5-0.1-1.1-0.2-1.6-0.2C21.3,9.6,19.1,9.5,16.5,9.5z"/>
	<path class="st0" d="M14.9,13.8c1.9,1.1,3.7,2.1,5.6,3.2c-1.9,1.1-3.7,2.1-5.6,3.2C14.9,18,14.9,16,14.9,13.8z"/>
</g>
<g id="Capa_2">
</g>
<g id="Capa_3">
</g>
<g id="Capa_4">
</g>
<g id="Capa_5">
</g>
</svg>
