<?xml version="1.0" encoding="utf-8"?>
<!-- Generator: Adobe Illustrator 24.1.0, SVG Export Plug-In . SVG Version: 6.00 Build 0)  -->
<svg version="1.1" id="Capa_1" xmlns="http://www.w3.org/2000/svg" xmlns:xlink="http://www.w3.org/1999/xlink" x="0px" y="0px"
	 viewBox="0 0 250 250" style="enable-background:new 0 0 250 250;" xml:space="preserve">
<style type="text/css">
	.st0{fill:#EB5E30;}
	.st1{fill:#C3303C;}
	.st2{fill:#273680;}
	.st3{fill:#FFFFFF;}
	.st4{fill:#F7E000;}
	.st5{fill:#0E85C7;}
	.st6{fill:#020203;}
	.st7{fill-rule:evenodd;clip-rule:evenodd;fill:#FFFFFF;}
	.st8{fill-rule:evenodd;clip-rule:evenodd;fill:#314697;}
	.st9{fill:#256EB6;}
	.st10{fill:#FAB61F;}
</style>
<g>
	<path d="M68,203c-0.5-0.1-0.9-0.2-1.4-0.3c-8.9-1.8-15.8-8.8-17.5-17.7c-2-10.9,4.7-21.8,15.5-24.8c6.4-1.8,12.5-1.1,18.2,2.4
		c0.2,0.1,0.3,0.2,0.6,0.3c0-5.9,0-11.7,0-17.5c0.8-0.2,8.8-0.3,10.4-0.1c0.2,0.7,0.3,55.3,0.1,56.7c-3.4,0-6.8,0-10.4,0
		c0-0.8,0-1.7,0-2.6c-0.3,0.1-0.5,0.2-0.7,0.3c-2.6,1.6-5.5,2.7-8.5,3.1c-0.1,0-0.2,0.1-0.3,0.2C71.9,203,70,203,68,203z
		 M71.2,193.1c6.6,0,12.2-5.4,12.3-12c0-6.6-5.6-12.2-12.1-12.3c-6.7,0-12.4,5.5-12.4,12.1C58.8,187.5,64.4,193,71.2,193.1z"/>
	<path d="M133,203c-0.4-0.1-0.9-0.2-1.3-0.3c-9.2-1.9-16.2-9.3-17.6-18.5c-1.7-11.3,5.9-22.2,17.2-24.4c5.9-1.2,11.4-0.4,16.6,2.8
		c0.2,0.1,0.3,0.2,0.6,0.3c0.2-1,0.1-2,0.1-2.9c0-1,0-1.9,0-2.9c0-1,0-1.9,0-2.9s0-1.9,0-2.9s0-1.9,0-2.9c0-1,0-1.9,0-3
		c3.5,0,6.8,0,10.2,0c0.2,0.7,0.3,55.3,0.1,56.7c-3.4,0-6.7,0-10.2,0c0-0.8,0-1.6,0-2.6c-0.3,0.1-0.5,0.1-0.6,0.2
		c-2.7,1.7-5.6,2.8-8.8,3.2c-0.1,0-0.2,0.1-0.4,0.1C136.9,203,134.9,203,133,203z M136.2,193.1c6.7,0,12.3-5.5,12.3-12
		c0-6.6-5.7-12.2-12.4-12.2c-6.5,0-12.1,5.7-12,12.2C124.1,187.6,129.7,193.1,136.2,193.1z"/>
	<path d="M181.5,203c-0.8-0.2-1.6-0.4-2.4-0.6c-8.5-2.1-15.1-9.4-16.4-18c-1.8-12,6.5-23.2,18.5-24.9c5.4-0.8,10.5,0.1,15.1,3.1
		c0.1,0.1,0.3,0.1,0.4,0.2c0,0,0.1,0,0.2,0c0-1,0-2,0-3.1c3.5,0,6.9,0,10.3,0c0,0,0,0,0.1,0.1c0,0,0.1,0,0.1,0.1
		c0,0.3,0.1,0.5,0.1,0.8c0,13.7,0,27.4,0,41.1c0,0.1-0.1,0.2-0.1,0.3c-3.4,0-6.8,0-10.3,0c0-0.8,0-1.7,0-2.6
		c-0.3,0.1-0.4,0.1-0.5,0.2c-2.7,1.7-5.6,2.8-8.8,3.3c-0.1,0-0.2,0.1-0.2,0.1C185.4,203,183.5,203,181.5,203z M184.8,193.1
		c6.6,0,12.1-5.4,12.1-12c0-6.6-5.5-12.2-12-12.2c-6.6,0-12.3,5.6-12.3,12.2C172.6,187.5,178.2,193.1,184.8,193.1z"/>
	<path d="M0,179.4c0.2-0.8,0.4-1.6,0.5-2.5c1.7-9.1,9.2-16.2,18.3-17.4c5.5-0.8,10.6,0.1,15.3,3.1c0.1,0.1,0.3,0.1,0.4,0.2
		c0,0,0.1,0,0.2-0.1c0-1,0-2,0-3.1c3.5,0,6.9,0,10.3,0c0,14.1,0,28.2,0,42.3c-3.4,0-6.8,0-10.2,0c0-0.4,0-0.8,0-1.2
		c0-0.4,0-0.8,0-1.4c-0.3,0.1-0.5,0.2-0.6,0.3c-2.7,1.7-5.6,2.7-8.7,3.2c-0.1,0-0.2,0.1-0.3,0.2c-2,0-3.9,0-5.9,0
		c-0.2-0.1-0.5-0.2-0.7-0.2c-9.4-1.6-17-9.3-18.2-18.8c-0.1-0.4-0.2-0.9-0.4-1.3C0,181.6,0,180.5,0,179.4z M22.4,193.1
		c6.7,0,12.3-5.4,12.4-12c0.1-6.6-5.6-12.2-12.2-12.3c-6.7,0-12.3,5.5-12.3,12.2C10.2,187.6,15.8,193,22.4,193.1z"/>
	<path d="M227.1,203c-0.6-0.1-1.3-0.3-1.9-0.4c-3.2-0.6-6.2-1.8-8.8-3.9c-2.8-2.3-4.4-5.3-4.9-8.8c-0.1-0.4,0-0.8-0.1-1.3
		c3.7,0,7.3,0,10.9,0c0.1,0.3,0.1,0.5,0.2,0.8c0.3,2,1.3,3.5,3,4.4c2.9,1.5,5.9,1.8,9.1,0.8c1.2-0.4,2.2-1.1,2.9-2.1
		c1.3-1.9,0.8-3.9-1.2-5c-1.3-0.6-2.6-0.9-4-1.1c-2.9-0.5-5.8-1-8.7-1.6c-1.4-0.3-2.8-0.8-4.2-1.3c-4.7-1.8-7.2-6.5-7-11.2
		c0.2-4.1,2.1-7.3,5.4-9.7c2.3-1.6,4.8-2.6,7.5-3c4.3-0.7,8.5-0.5,12.6,0.9c2.4,0.8,4.5,2.1,6.2,3.9c2.2,2.3,3.4,5,3.8,8.1
		c0,0.1,0,0.3,0,0.4c0,0.1,0,0.1-0.1,0.2c-3.4,0-6.9,0-10.5,0c0-0.3-0.1-0.6-0.1-0.9c-0.2-2.4-1.5-3.9-3.8-4.5
		c-2.5-0.6-5-0.5-7.4,0.2c-1,0.3-1.9,0.8-2.4,1.8c-0.7,1.4-0.5,2.8,0.8,3.7c0.7,0.5,1.5,0.9,2.3,1.1c1.8,0.5,3.6,0.8,5.4,1.2
		c2.5,0.5,5.1,1,7.6,1.6c2.2,0.5,4.3,1.6,6,3.1c1.6,1.3,2.8,2.9,3.4,4.9c0.1,0.5,0.2,0.9,0.4,1.4c0,1.4,0,2.9,0,4.3
		c-0.1,0.5-0.2,1-0.3,1.5c-0.8,3.4-2.8,5.9-5.7,7.7c-1.9,1.1-3.9,1.9-6.1,2.3c-1,0.2-2.1,0.4-3.1,0.6C232,203,229.6,203,227.1,203z"
		/>
	<path d="M149,34.9c21.3,36.7,42.5,73.4,63.8,110.2c-0.4,0-0.7,0.1-0.9,0.1c-2.1,0-4.3,0-6.4,0c-13.6,0-27.2,0-40.8,0
		c-0.8,0-1.3-0.2-1.7-1c-16.7-29.1-33.5-58.1-50.2-87.2c-0.2-0.3-0.3-0.6-0.5-1C124.5,49,136.7,42,149,34.9z"/>
	<path d="M109.6,145.2c0,3.6,0,7,0,10.4c-3.5,0-6.9,0-10.4,0c0-0.3-0.1-0.7-0.1-1c0-2.8,0-5.7,0-8.5c0-0.6-0.1-1.2-0.5-1.7
		c-9.3-16-18.6-32-27.9-48c-0.3-0.4-0.5-0.9-0.8-1.5c12.3-7.1,24.5-14.1,36.7-21.1c0.1,0,0.1,0,0.2,0c0,0,0.1,0,0.1,0
		c0.1,0.1,0.2,0.3,0.3,0.4c13.6,23.6,27.2,47.1,40.8,70.7c0,0,0,0.1,0,0.3C135.3,145.2,122.5,145.2,109.6,145.2z"/>
	<path d="M83.2,145.2c-0.6,0-1,0-1.3,0c-15.6,0-31.2,0-46.8,0c-0.8,0-1.3-0.2-1.7-1c-2-3.6-4.1-7.2-6.1-10.7
		c-0.1-0.2-0.3-0.5-0.4-0.8c12.3-7.1,24.5-14.2,36.8-21.3C70.1,122.7,76.6,133.8,83.2,145.2z"/>
	<path d="M109.5,202c-3.5,0-6.9,0-10.3,0c0-14.1,0-28.1,0-42.3c3.4,0,6.8,0,10.3,0C109.5,173.8,109.5,187.8,109.5,202z"/>
</g>
</svg>
