<?xml version="1.0" encoding="utf-8"?>
<!-- Generator: Adobe Illustrator 24.1.0, SVG Export Plug-In . SVG Version: 6.00 Build 0)  -->
<svg version="1.1" id="Capa_1" xmlns="http://www.w3.org/2000/svg" xmlns:xlink="http://www.w3.org/1999/xlink" x="0px" y="0px"
	 viewBox="0 0 250 250" style="enable-background:new 0 0 250 250;" xml:space="preserve">
<style type="text/css">
	.st0{fill:#EB5E30;}
	.st1{fill:#C3303C;}
	.st2{fill:#273680;}
	.st3{fill:#FFFFFF;}
	.st4{fill:#F7E000;}
	.st5{fill:#0E85C7;}
	.st6{fill:#020203;}
	.st7{fill-rule:evenodd;clip-rule:evenodd;fill:#FFFFFF;}
	.st8{fill-rule:evenodd;clip-rule:evenodd;fill:#314697;}
	.st9{fill:#256EB6;}
	.st10{fill:#FAB61F;}
</style>
<g>
	<path class="st0" d="M53.8,149.9c9.3-8.8,15.1-18.9,15.2-31.7c0.1-12.8-5.5-22.9-15-31.9c1.3,0,2.2,0,3,0c32.8,0,65.7,0,98.5,0
		c30.5,0,61-0.1,91.4-0.1c3.1,0,3.1,0,3.1,3c0,19.4,0,38.7,0,58.1c0,1.9-0.4,2.6-2.5,2.6c-63.8-0.1-127.6,0-191.4,0
		C55.5,149.9,54.8,149.9,53.8,149.9z M116.9,102.6c-3.9-1.4-7.7-1.6-11.5-1.3c-7.2,0.5-13,4.9-15.4,11.9c-2.6,7.6-0.7,15.8,4.5,20.5
		c5.8,5.3,16.2,5.3,22.3,2.3c0.6-0.3,1.2-1.4,1.2-2.2c0.1-3.3,0-6.5,0-9.8c0-1.9,0-3.8,0-5.9c-4.1,0-7.9,0-11.7,0.1
		c-0.4,0-1.1,0.7-1.1,1.1c-0.1,1.5-0.1,2.9-0.1,4.6c2.1,0,3.9,0,5.9,0c0,2.7,0,5.2,0,7.7c-7.2,1.3-12.9-1.9-14.6-8
		c-2.9-10.1,4.9-18.5,15.4-16.7c3.8,0.7,3.8,0.7,5-3.1C116.7,103.3,116.8,103.1,116.9,102.6z M137,135.8c0.1,0.2,0.3,0.8,0.5,1.6
		c1.8,0,3.6,0,5.4,0c0.1-0.4,0.3-0.6,0.3-0.9c0-5.9,0.1-11.8-0.1-17.7c-0.1-2.9-1.8-5.1-4.5-6.2c-4.5-1.8-9-1.5-13.4,0.7
		c-1.9,1-0.4,2.2-0.2,3.3c0.2,1,0.8,1.5,2,1.1c1.9-0.5,3.9-1,5.8-1.1c2.8-0.2,4.3,1.9,3.9,4.1c-3.7,1.1-7.3,1.8-10.5,3.2
		c-3.2,1.4-4.5,4.9-3.6,8.3c0.9,3.6,3.5,6,7.2,5.6C132.1,137.6,134.5,136.5,137,135.8z M229.2,137.2c0.1-0.2,0.3-0.5,0.3-0.8
		c0-5.8,0.2-11.5,0-17.3c-0.1-2.9-1.6-5.4-4.4-6.6c-4.6-1.9-9.2-1.6-13.6,0.7c-1.9,1-0.3,2.2-0.2,3.3c0.2,1.1,0.7,1.5,2,1.1
		c2-0.5,4-1.1,6-1.1c2.6-0.1,4.1,2.1,3.6,4.2c-3.6,1-7,1.7-10.2,3c-3.5,1.5-4.8,5-3.9,8.7c0.9,3.4,3.7,5.7,7.4,5.4
		c2.3-0.2,4.6-1.3,6.9-2C223.9,137.6,224.8,137.9,229.2,137.2z M191.5,117.1c0.3-0.8,0.6-1.7,1-2.5c0.8-1.4,0.3-2.3-1.1-2.4
		c-2.6-0.3-5.4-0.8-8-0.3c-6.3,1.3-9.9,6.3-10.3,13.4c-0.3,5.5,2.3,10.1,7,12.1c4.5,2,10.3,0.9,13.6-2.5c-1.1-3.3-1.1-3.2-4.2-2.5
		c-1.3,0.3-2.7,0.5-4,0.2c-3.9-0.8-6.1-4.1-5.8-8.5c0.3-3.9,3.3-7.1,7.1-7.3C188.2,116.8,189.7,117,191.5,117.1z M149,137.4
		c1.5,0,2.9-0.1,4.2,0c2,0.2,2.5-0.6,2.5-2.5c-0.1-10.7,0-21.5,0-32.2c0-4.5,0.4-3.9-4-4c-2.7,0-2.8,0-2.8,2.9c0,11,0,22,0,33.1
		C148.9,135.5,149,136.4,149,137.4z M162,137.4c1.8,0,3.4,0,4.9,0c1.1,0,1.6-0.3,1.6-1.5c0-7.5,0-15.1-0.1-22.6
		c0-0.5-0.7-1.3-1.1-1.3c-1.7-0.2-3.5-0.1-5.3-0.1C162,120.6,162,128.8,162,137.4z M198.4,137.4c1.8,0,3.4,0.1,5.1-0.1
		c0.5-0.1,1.4-0.8,1.4-1.3c0.1-7.6,0.1-15.2,0-22.8c0-0.4-0.7-1.2-1-1.2c-1.7-0.1-3.5-0.1-5.4-0.1
		C198.4,120.5,198.4,128.8,198.4,137.4z M161.6,103c-0.2,1.9,1.4,3.6,3.3,3.8c2,0.2,3.6-1.2,3.8-3.1c0.2-2-1.3-3.8-3.3-4
		C163.6,99.5,161.8,101.1,161.6,103z M204.9,103.3c0-1.9-1.4-3.4-3.3-3.5c-1.9-0.1-3.5,1.4-3.5,3.2c-0.1,1.9,1.5,3.6,3.4,3.6
		C203.4,106.6,204.9,105.2,204.9,103.3z"/>
	<path class="st1" d="M-0.1,86.2c4.2,0,8.4,0,12.6,0c9.9,0,19.8,0.1,29.7,0.1c1.8,0,3.1,0.5,4.4,1.7c11.6,11.4,16.3,24.8,12,40.8
		c-2.1,8-6.7,14.7-12.9,20.2c-0.6,0.5-1.5,1-2.2,1c-14.2,0.1-28.5,0-42.7,0c-0.2,0-0.4-0.1-0.7-0.2C-0.1,128.7-0.1,107.6-0.1,86.2z
		 M30.9,104.6c-3-0.6-5.4-1.2-7.8-1.5c-1-0.1-2.4,0.2-3.1,0.8c-0.5,0.4-0.5,2.3,0,2.6c0.8,0.6,2.1,0.8,3.1,0.7
		c2.3-0.3,4.7-0.9,7.3-1.4c-0.1,3.4-0.3,6.1-2.1,8.6c-0.4,0.5-0.6,1.4-0.5,2.1c1.1,8.7,2.3,17.3,3.4,26c0.5-0.4,0.8-0.8,0.9-1.3
		c1.2-8.3,2.3-16.6,3.4-24.9c0.1-0.5-0.2-1.3-0.6-1.7c-2.2-2.4-2.1-5.4-2.3-8.8c2.7,0.5,5,1.1,7.4,1.4c1,0.1,2.4,0,3-0.6
		c0.5-0.5,0.5-2.2,0-2.8c-0.6-0.6-2-0.9-2.9-0.7c-2.4,0.3-4.8,0.9-7.9,1.5c0.5-3,1.1-5.4,1.4-7.8c0.1-1-0.2-2.4-0.8-3.1
		c-0.4-0.4-2.2-0.4-2.6,0.1c-0.6,0.7-0.8,2-0.7,2.9C29.8,99.2,30.4,101.6,30.9,104.6z"/>
	<path class="st0" d="M137.1,128.1c-0.4,2.9-4,5.6-6.4,4.6c-0.9-0.4-2-1.4-2.1-2.3c-0.1-1,0.4-2.7,1.2-3.1c1.8-0.9,3.9-1.2,6-1.5
		C136.1,125.8,136.7,127.3,137.1,128.1z"/>
	<path class="st0" d="M223.5,128c-0.4,2.9-3.6,5.5-6.1,4.8c-0.9-0.3-2.1-1.3-2.3-2.1c-0.2-1,0.2-2.5,0.9-3.2
		c1.6-1.7,3.9-1.9,6.1-1.5C222.7,126,223.1,127.3,223.5,128z"/>
</g>
</svg>
