<?xml version="1.0" encoding="utf-8"?>
<!-- Generator: Adobe Illustrator 24.1.0, SVG Export Plug-In . SVG Version: 6.00 Build 0)  -->
<svg version="1.1" id="Capa_1" xmlns="http://www.w3.org/2000/svg" xmlns:xlink="http://www.w3.org/1999/xlink" x="0px" y="0px"
	 viewBox="0 0 250 250" style="enable-background:new 0 0 250 250;" xml:space="preserve">
<style type="text/css">
	.st0{fill:#EB5E30;}
	.st1{fill:#C3303C;}
	.st2{fill:#273680;}
	.st3{fill:#FFFFFF;}
	.st4{fill:#F7E000;}
	.st5{fill:#0E85C7;}
	.st6{fill:#020203;}
	.st7{fill-rule:evenodd;clip-rule:evenodd;fill:#FFFFFF;}
	.st8{fill-rule:evenodd;clip-rule:evenodd;fill:#314697;}
	.st9{fill:#256EB6;}
	.st10{fill:#FAB61F;}
</style>
<path class="st2" d="M164.1,8.3c3,2,6.2,3.7,8.9,6c1.6,1.4,2.3,3.7,3.4,5.7c0.3,0.6,0.2,1.5,0.6,1.8c3.6,2.1,3.7,4.5,0.6,7.3
	c2.5,1.9,4.7,3.6,6.8,5.3c23.1,18.2,21.9,49.8,3.9,68.1c-11.5,11.7-25.7,18.2-41.5,21.4c-24.6,5-48.8,4-72.3-5.5
	c-10.6-4.3-19.7-10.6-27-19.5c-15-18.3-14.7-47.7,7.1-64.6c2.2-1.7,4.3-3.4,6.7-5.2c-2.6-2.7-3.2-5.1,0.4-7.1
	c0.1-0.1,0.3-0.1,0.3-0.2c0-7.9,7.7-9.1,11.8-13.4c0.8,0,1.7,0,2.5,0c2.8,2.4,5.4,5.1,8.5,7.2c1.4,1,3.7,1.8,5.4,1.4
	c17.4-3.9,34.8-5,52.2-0.9c7,1.7,12.2,1,16.4-4.9c0.8-1.2,2.3-1.9,3.4-2.8C163,8.3,163.6,8.3,164.1,8.3z M48.9,90.6
	c3.1,0,5.6-0.4,7.9,0.1c16.6,3.5,33.3,3.7,50.1,2c10.5-1.1,13-5.2,9.4-15.1c-0.2-0.5-0.4-1-0.6-1.5c-5.1-11.6-10.3-23.2-15.3-34.9
	c-4-9.3-9.7-17.2-17.2-24.2c-7.9-7.3-9.2-7.6-17-0.2c-0.6,0.5-1.5,1.7-1.3,1.9c1.5,2,3,4.5,5.1,5.7c1.4,0.7,3.9-0.5,6.4-1
	c1.2,1.2,3.1,3.2,5,5.2c-2.3-0.8-4.7-3.6-5.9-3.2c-3.8,1.3-6.7-0.2-9.9-1.4c-1-0.3-2.4,0.5-3.6,0.8c0.9,0.9,1.6,2.2,2.7,2.6
	c2.8,0.9,5.7,1.3,8.5,2c3.7,0.9,7.5,1.7,11.1,2.8c1.3,0.4,2.9,1.5,3.3,2.6c1.6,5.2,3.3,10.5,3.9,15.9c0.9,8.7,0.9,17.5,1.3,26.4
	c0.5-0.1,0.3,0,0.2,0c-0.9-0.4-1.8-0.8-2.7-1.2c-14.8-6.1-29.9-10.2-46.1-9c-3.3,0.2-4.3,1.2-3.8,4.5C41.5,78.8,44.4,85.2,48.9,90.6
	z M146.7,76.8c0.3-8.6,0.3-17.3,1.2-25.9c0.5-5.4,2.3-10.7,3.8-16c0.3-1.1,2-2.3,3.2-2.6c6.6-1.8,13.4-3.3,20-4.8
	c0.3-0.1,0.6-0.1,0.8-0.3c0.6-0.7,1-1.5,1.5-2.2c-0.8-0.4-1.6-1.2-2.3-1.1c-1.5,0.2-2.9,1-4.3,1.4c-1.4,0.3-3,0.9-4.3,0.5
	c-2.3-0.8-3.9-0.4-5.5,1.5c-0.7,0.8-1.8,1.3-2.7,2c-0.1-0.2-0.2-0.4-0.4-0.6c2.9-3.2,5.9-6.5,8.8-9.7c0.4,0.4,0.7,0.7,1.1,1.1
	c-1.3,1.1-2.5,2.1-4.1,3.5c5,2.1,7.7,1.2,10-2.9c2.1-3.8-1.9-4.1-3.6-5.7c-1-1-2.4-1.5-3.4-2.4c-2.6-2.2-4.3-1.4-6.8,0.6
	c-11.2,9.4-18.7,21.3-24.2,34.7c-4.5,11-9.5,21.8-13.5,33c-2.4,6.9,0.6,10.7,7.7,11.5c13.4,1.5,26.8,1.7,40.3,0.4
	c6.4-0.6,12.5-4,19.2-1.8c0.3,0.1,1-0.4,1.3-0.8c5-6.6,8.4-13.8,8.2-22.6C180.1,64.8,163,69.9,146.7,76.8z M52.4,93
	c30,33.2,107.5,31.5,134.1,0.1c-1.1,0-1.9-0.2-2.6,0c-16,3.8-32.2,3.8-48.4,2.3c-5.7-0.5-11.9-0.1-15.2-5.1c-3,1.5-5.7,3.9-8.5,4.1
	c-13.3,0.8-26.6,1.3-39.8,1.2C65.7,95.6,59.4,94,52.4,93z M90.6,20.2c14.5,17.6,19.8,38.9,29.1,57.8c9.5-19,14.6-40.4,29.1-57.8
	C129.3,15.4,110.2,15.4,90.6,20.2z M40,64.5c17.8-2.6,33.3,2.5,48.8,7.8c0-7.6,0.4-14.5-0.1-21.3c-0.3-4.6-1.8-9.2-3-13.7
	c-0.3-1-1.4-2.2-2.3-2.5c-4.6-1.4-9.2-2.7-13.9-3.7c-1.7-0.4-4.1-0.7-5.4,0.1C55.2,36.6,47.9,43.4,43.6,53
	C42.2,56.3,41.4,59.9,40,64.5z M198.4,64.3c-0.3-2.3-0.4-3.7-0.7-5.1c-2.8-11.4-10.4-19.2-19.4-26.1c-3.8-2.9-7.1-2.8-11.1-1.1
	c-2.9,1.2-6,2.4-9.1,2.6c-2.8,0.2-4,1.2-5,3.7c-4.7,10.9-0.8,22.5-3.2,34.2C165.8,66.9,181.3,62,198.4,64.3z"/>
<path class="st2" d="M250,173.6c-0.3,0.5-0.7,0.9-0.8,1.4c-2.2,8.2-7.3,12.4-15.2,12.6c-8.6,0.2-14.6-3.6-16.8-10.6
	c-2.5-7.7-0.1-16.2,5.7-20.1c6.1-4.2,15.6-4.4,20.9,0.7c2.8,2.7,4.2,6.8,6.3,10.3C250,169.7,250,171.6,250,173.6z M241.1,170.7
	c0-6-2.4-9.8-6.7-10.5c-5-0.8-8.8,2.4-9.5,8c-0.9,7.3,1.8,12.5,6.8,13.1C237.7,182,241.1,178.1,241.1,170.7z"/>
<path class="st2" d="M48.2,187c-6.6,0.9-8-0.2-8-5.9c0-4.7,0.1-9.4,0-14.1c-0.1-4-2.1-5.9-5.9-5.9c-3.7,0-5.9,1.9-6,5.9
	c-0.1,5.7-0.2,11.3,0,17c0.1,3.2-1.4,3.5-4,3.6c-2.7,0-4.1-0.6-4-3.7c0.2-5.4,0.1-10.8,0-16.2c-0.1-4.8-1.8-6.6-6-6.6
	c-4.1,0-5.9,1.9-6,6.7c-0.1,5.4-0.1,10.8,0,16.2c0.1,2.7-1,3.6-3.7,3.6c-2.6,0-4.3-0.3-4.2-3.5c0.2-5.7-0.1-11.3,0.1-17
	c0.4-9,5.7-14.1,14.7-12.6c6.3,1,12.2,0.8,18.4,0.2c9.8-0.9,14.4,3.9,14.4,13.6C48.2,174.3,48.2,180.5,48.2,187z"/>
<path class="st2" d="M202.7,159c0-3.6,0-6.1,0-8.5c0-5.7,1.3-6.9,7.5-6.5c0.1,0.7,0.4,1.5,0.4,2.2c0,9,0.1,18,0,27
	c-0.1,9.8-5.1,14.4-15.2,14.4c-9.8,0-15.1-5.1-15.3-14.6c0-1.4-0.1-2.8,0-4.2c0.3-5.4,1.4-10.6,6.9-13.2
	C192.4,152.9,197.5,153.6,202.7,159z M202.8,171.8c-0.2-2-0.3-3.4-0.6-4.8c-0.9-3.5-2.9-6-6.9-6c-3.7,0-6.2,2.2-6.6,5.6
	c-0.4,3.3-0.6,7,0.4,10.1c0.6,1.9,3.5,3.6,5.8,4.3c2.9,0.8,5.4-1,6.6-3.9C202.3,175.3,202.5,173.2,202.8,171.8z"/>
<path class="st2" d="M97.6,193c0,4.6,0,9,0,12.6c4.1-1,7.7-2.3,11.5-2.7c2-0.2,4.3,1.1,6.1,2.3c5.2,3.6,7,15.6,3.8,23.1
	c-2.4,5.7-9.1,8.9-16.3,7.9c-9-1.3-12.5-5.3-12.6-14.4c-0.1-7.2,0-14.4,0-21.5C90,195,91.1,193.9,97.6,193z M112.5,219.2
	c-0.1-0.8-0.3-2.3-0.7-3.8c-0.8-3.4-2.8-5.6-6.6-5.7c-4-0.1-6.3,2.1-6.9,5.7c-0.5,2.9-0.5,6,0,9c0.5,3.3,2.9,5.2,6.5,5.3
	C109.5,229.8,112.3,226.2,112.5,219.2z"/>
<path class="st2" d="M178.6,221.6c-7.7,0-15.1,0-22.7,0c-0.5,3.6,0.6,6.1,3.5,7.6c3.2,1.6,6.8,1.8,9.3-0.7c2.8-2.9,5.7-2.6,9-2.2
	c-2.2,8-9.3,11.6-18.7,9.5c-8.8-2-13.3-10-11.4-20.4c1.5-7.9,9.7-13.6,18-12.4C174.2,204.1,179.6,211.6,178.6,221.6z M170.1,216.1
	c-1-5.5-3.3-7.4-7.9-6.9c-3.9,0.4-5.9,2.7-6,6.9C160.7,216.1,165.3,216.1,170.1,216.1z"/>
<path class="st2" d="M61.4,173.2c-0.4,3.1,0.6,5.7,3.5,7.1c3.2,1.5,6.8,1.8,9.3-0.8c2.7-2.8,5.5-2.5,9.6-2.2
	c-1.4,2.2-2.2,4.2-3.6,5.8c-4.5,5-14.1,5.9-20.4,2c-6.3-3.8-9-12.7-6.3-20.6c2.4-6.9,9.7-11.5,17-10.6c7.7,1,12.8,6.6,13.6,14.4
	c0.4,3.4-0.8,4.3-4.1,4.2c-6-0.2-11.9,0-17.9,0.1C62,172.8,61.8,173,61.4,173.2z M61.3,167.2c5.1,0,9.8,0,14.5,0
	c-1.5-5.6-3.8-7.5-8-7C63.9,160.7,61.5,162.7,61.3,167.2z"/>
<path class="st2" d="M148.9,163.7c-0.5-4.4,1.3-8.2,5.6-8.8c4.8-0.7,9.9-0.6,14.6,0.4c2.2,0.5,4.9,3.8,5.2,6.1
	c0.7,5.3,0.3,10.7-0.2,16.1c-0.4,4.8-3.7,7.8-8.1,8.9c-3,0.8-6.3,1.1-9.4,1c-5.3-0.2-8.8-3.7-9.4-8.8c-0.6-5,2-9.1,7.3-10.6
	c2.9-0.8,6-0.9,8.9-1.8c1.3-0.4,2.3-2,3.4-3c-1.3-1-2.6-2.7-4-2.8c-1.9-0.2-4.6,0.2-5.7,1.4C154.6,164.7,151.8,164.2,148.9,163.7z
	 M166.4,170.8c-3.2,0.8-6.3,1.2-8.8,2.6c-1.4,0.7-2.6,3.3-2.3,4.9c0.2,1.2,2.6,2.7,4.2,2.9C164.7,181.6,167.4,177.7,166.4,170.8z"/>
<path class="st2" d="M141.9,165.5c-3.4,0.2-6.6,1.5-9-3c-2.1-3.9-8.8-3.2-11.2,0.9c-2.8,4.7-2.9,9.8-0.2,14.6
	c2.5,4.5,9.6,4.9,11.7,0.4c2.3-4.8,5.6-3.7,9.2-3.4c-0.4,8.4-7,13.1-16.8,12.5c-8.8-0.6-15.2-8.3-14.4-17.5
	c0.8-10.8,8.1-17.2,18.4-16.2C137.4,154.6,142.6,159.4,141.9,165.5z"/>
<path class="st2" d="M55.9,236.1c0-7.2,0-14.2,0-21.2c0-5.1-0.2-10.2,0.1-15.3c0.1-1.7,1-3.7,2.2-5c1-1,2.9-1.1,4.5-1.7
	c0.4,1.4,1,2.7,1,4.1c0.1,10.9,0,21.8,0,32.7C63.8,236.7,63.8,236.7,55.9,236.1z"/>
<path class="st2" d="M133.9,236c-2.7,0-5,0-8.3,0c0.4-7.9,0.2-15.8,1.5-23.4c1.1-6.4,9.1-10.9,15.5-9.6c0.9,0.2,1.9,2,1.9,3.1
	c0.1,1.7,1.3,4.2-2.1,4.9c-8.2,1.7-8.6,2.3-8.6,10.7C133.9,226.4,133.9,231.1,133.9,236z"/>
<path class="st2" d="M89.6,175.8c0.4-3.8,0.3-7.8,1.2-11.4c1.6-6.7,8.2-11.1,15-10.2c1,0.1,2.3,2,2.5,3.2c0.2,1.8,1.1,4.2-2.1,5
	c-7.8,1.8-8.4,2.7-8.5,10.7c0,3.7-0.1,7.4,0,11.2c0.1,3-1.6,3.2-4,3.2c-2.5,0-4-0.4-3.8-3.3c0.1-2.7,0-5.5,0-8.3
	C89.8,175.9,89.7,175.8,89.6,175.8z"/>
<path class="st2" d="M73.7,204.9c7-1.4,7.2-1.2,7.2,5.2c0,8.5,0,17.1,0,25.9c-2.6,0-4.7,0-7.2,0C73.7,225.7,73.7,215.3,73.7,204.9z"
	/>
<path class="st2" d="M73.6,200.4c0-3,0-5,0-7.7c2.5,0.3,5,0,6.7,1c0.9,0.5,1,4.5,0.1,5.2C78.8,200,76.3,199.9,73.6,200.4z"/>
<path class="st3" d="M48.9,90.6c-4.5-5.4-7.4-11.8-8.6-19.2c-0.5-3.4,0.5-4.3,3.8-4.5c16.2-1.2,31.4,2.9,46.1,9
	c0.9,0.4,1.8,0.8,2.7,1.2c0.1,0,0.3,0-0.2,0c-0.4-8.9-0.4-17.7-1.3-26.4C90.8,45.3,89,40,87.5,34.8c-0.3-1.1-2-2.2-3.3-2.6
	c-3.6-1.1-7.4-1.9-11.1-2.8c-2.8-0.7-5.7-1.1-8.5-2c-1.1-0.3-1.8-1.7-2.7-2.6c1.2-0.3,2.6-1.2,3.6-0.8c3.2,1.1,6.1,2.7,9.9,1.4
	c1.2-0.4,3.6,2.4,5.9,3.2c-1.9-2-3.8-4-5-5.2c-2.6,0.5-5,1.7-6.4,1c-2.1-1.1-3.5-3.6-5.1-5.7c-0.1-0.2,0.8-1.4,1.3-1.9
	c7.9-7.4,9.2-7.1,17,0.2c7.4,6.9,13.2,14.8,17.2,24.2c5,11.7,10.2,23.3,15.3,34.9c0.2,0.5,0.4,1,0.6,1.5c3.6,9.9,1.1,14-9.4,15.1
	c-16.8,1.7-33.5,1.5-50.1-2C54.5,90.2,52,90.6,48.9,90.6z"/>
<path class="st3" d="M146.7,76.8c16.2-6.8,33.3-11.9,52.2-9.4c0.2,8.8-3.2,16-8.2,22.6c-0.3,0.4-1,0.9-1.3,0.8
	c-6.7-2.2-12.8,1.2-19.2,1.8c-13.5,1.3-26.9,1.1-40.3-0.4c-7.1-0.8-10.1-4.7-7.7-11.5c4-11.2,9-22,13.5-33
	c5.5-13.4,13-25.3,24.2-34.7c2.4-2,4.2-2.9,6.8-0.6c1,0.9,2.4,1.4,3.4,2.4c1.6,1.6,5.7,1.9,3.6,5.7c-2.3,4.1-5.1,5-10,2.9
	c1.6-1.3,2.8-2.4,4.1-3.5c-0.4-0.4-0.7-0.7-1.1-1.1c-2.9,3.2-5.9,6.5-8.8,9.7c0.1,0.2,0.2,0.4,0.4,0.6c0.9-0.7,2-1.2,2.7-2
	c1.5-1.9,3.1-2.2,5.5-1.5c1.2,0.4,2.9-0.2,4.3-0.5c1.5-0.4,2.8-1.2,4.3-1.4c0.7-0.1,1.6,0.7,2.3,1.1c-0.5,0.7-1,1.5-1.5,2.2
	c-0.1,0.2-0.5,0.2-0.8,0.3c-6.7,1.6-13.4,3.1-20,4.8c-1.3,0.3-2.9,1.5-3.2,2.6c-1.5,5.3-3.3,10.6-3.8,16
	C147,59.5,147.1,68.2,146.7,76.8z"/>
<path class="st4" d="M52.4,93c7,1,13.3,2.6,19.6,2.7c13.3,0.1,26.6-0.4,39.8-1.2c2.8-0.2,5.5-2.6,8.5-4.1c3.3,5,9.5,4.6,15.2,5.1
	c16.2,1.5,32.4,1.5,48.4-2.3c0.7-0.2,1.5,0,2.6,0C159.9,124.5,82.4,126.2,52.4,93z"/>
<path class="st4" d="M90.6,20.2c19.6-4.8,38.7-4.7,58.2,0C134.3,37.5,129.1,59,119.6,78C110.4,59.1,105.1,37.8,90.6,20.2z"/>
<path class="st4" d="M40,64.5c1.4-4.6,2.1-8.2,3.6-11.5c4.2-9.6,11.6-16.4,20.4-21.7c1.4-0.8,3.7-0.5,5.4-0.1
	c4.7,1,9.3,2.3,13.9,3.7c1,0.3,2.1,1.5,2.3,2.5c1.2,4.5,2.7,9.1,3,13.7c0.5,6.8,0.1,13.8,0.1,21.3C73.4,67,57.9,61.9,40,64.5z"/>
<path class="st4" d="M198.4,64.3c-17.1-2.4-32.6,2.5-48.6,8.1c2.4-11.7-1.4-23.2,3.2-34.2c1.1-2.5,2.2-3.5,5-3.7
	c3.1-0.2,6.2-1.4,9.1-2.6c4-1.7,7.3-1.8,11.1,1.1c9,6.9,16.6,14.7,19.4,26.1C198.1,60.6,198.1,62.1,198.4,64.3z"/>
</svg>
