<?xml version="1.0" encoding="utf-8"?>
<!-- Generator: Adobe Illustrator 24.1.0, SVG Export Plug-In . SVG Version: 6.00 Build 0)  -->
<svg version="1.1" id="Capa_1" xmlns="http://www.w3.org/2000/svg" xmlns:xlink="http://www.w3.org/1999/xlink" x="0px" y="0px"
	 viewBox="0 0 250 250" style="enable-background:new 0 0 250 250;" xml:space="preserve">
<style type="text/css">
	.st0{fill:#EB5E30;}
	.st1{fill:#C3303C;}
	.st2{fill:#273680;}
	.st3{fill:#FFFFFF;}
	.st4{fill:#F7E000;}
	.st5{fill:#0E85C7;}
	.st6{fill:#020203;}
	.st7{fill-rule:evenodd;clip-rule:evenodd;fill:#FFFFFF;}
	.st8{fill-rule:evenodd;clip-rule:evenodd;fill:#314697;}
	.st9{fill:#256EB6;}
	.st10{fill:#FAB61F;}
</style>
<g>
	<g>
		<path class="st7" d="M0,0.4h249.6V250H0V0.4z"/>
		<path class="st8" d="M85.5,68.9H34.6c0,0,2.2,2,2.5,3.5c0.4,2.3-0.6,4.6-0.6,4.6L10,162.1c0,0-1.2,3.1-2.7,4.5
			c-1.2,1.1-3.7,2.1-3.7,2.1H41c0,0-2.5-1.3-3.2-2.7c-0.6-1.3-0.3-3.7-0.3-3.7l9.2-31.7c0,0,44,6.5,57.3-26.4
			C115.3,76.4,93.3,68.9,85.5,68.9L85.5,68.9z M80.9,102.4c-9,26.4-32.1,21.7-32.1,21.7l14.6-47.5h8.5
			C71.8,76.6,90.1,75.1,80.9,102.4L80.9,102.4z"/>
		<path class="st8" d="M207.3,108.1c-13.3,2.1-33.1,9.5-33.1,9.5l-2.3,10.1c0,0,6.9-3.3,11.6-4.6c4.1-1.2,10.8-2.2,10.8-2.2
			L183,161.2c0,0-31.4,7-14.1-46.6c3.8-11.9,16.9-31.1,30.2-35.5c14.9-4.9,30.2,6.3,30.2,6.3l4.4-13.3c0,0-16.6-4.4-27.4-3.9
			c-21.3,0.9-35.3,6.5-50.1,21.8c-18.8,19.4-17.1,48.2-17.1,48.2L132,144l-7,5.5c0,0-4.5-6.9-6.1-11.8c-1.3-4-1.9-10.6-1.9-10.6
			s12-6,18.1-11c12.2-9.9,7.8-21.5-0.3-22.7c-9.4-1.4-14-0.7-20.9,4.8c-10.6,8.4-11,26.2-11,26.2s-34.8,8.5-30.4,33.6
			c1.3,7.5,12.6,11.9,21.8,11.7c14.4-0.6,24.1-7.1,24.1-7.1s8.8,12.2,31,17.6c28.5,7,57-7.4,57-7.4l1.7-4.4c0,0-21.1,11.2-45.1,6.6
			c-22.2-4.2-33.9-18.9-33.9-18.9s3.9-3,6.4-5c2.2-1.8,5.5-4.8,5.5-4.8s4.3,13.3,15.9,18.8c25.5,12,53.2-2,53.2-2l13.5-44.7
			c0,0,5.6-0.5,9.3-0.5c4,0,10.1,0.7,10.1,0.7l3.2-11.8C245.9,106.8,222.1,105.7,207.3,108.1L207.3,108.1z M100.5,160.4
			c-5.5,0.3-11.5-1.9-12.9-7c-3.8-13.9,16-20.9,16-20.9s1.5,7.8,3.3,12.6c1.9,4.7,6.1,11.3,6.1,11.3S107.1,160,100.5,160.4
			L100.5,160.4z M129.8,99.6c3.7,0.5,2.8,8.9-2.4,12.6c-4,4.3-10.9,6.2-10.9,6.2S115.7,97.5,129.8,99.6z"/>
	</g>
</g>
</svg>
