<?xml version="1.0" encoding="utf-8"?>
<!-- Generator: Adobe Illustrator 24.1.0, SVG Export Plug-In . SVG Version: 6.00 Build 0)  -->
<svg version="1.1" id="Capa_1" xmlns="http://www.w3.org/2000/svg" xmlns:xlink="http://www.w3.org/1999/xlink" x="0px" y="0px"
	 viewBox="0 0 250 250" style="enable-background:new 0 0 250 250;" xml:space="preserve">
<style type="text/css">
	.st0{fill:#EB5E30;}
	.st1{fill:#C3303C;}
	.st2{fill:#273680;}
	.st3{fill:#FFFFFF;}
	.st4{fill:#F7E000;}
	.st5{fill:#0E85C7;}
	.st6{fill:#020203;}
	.st7{fill-rule:evenodd;clip-rule:evenodd;fill:#FFFFFF;}
	.st8{fill-rule:evenodd;clip-rule:evenodd;fill:#314697;}
	.st9{fill:#256EB6;}
	.st10{fill:#FAB61F;}
</style>
<g>
	<path class="st6" d="M89,143.9c-9.1,0-17.5-2.7-23.1-7.8c-4.2-3.8-6.3-9-6.3-14.3c0-5.3,2.1-10.5,6.3-14.2
		c5.2-4.7,14.4-7.7,23.1-7.7c9.6,0,17.3,2.4,23.1,7.7c4.2,3.8,6.2,9,6.2,14.2c0,5.1-2.1,10.5-6.2,14.3
		C106.7,141.2,98.1,143.9,89,143.9v-5.8c4.8,0,9.3-1.7,12.4-4.8c3.1-3.1,4.5-6.9,4.5-11.5c0-4.4-1.6-8.6-4.5-11.5
		c-3.1-3-7.6-4.7-12.4-4.7c-4.8,0-9.3,1.7-12.4,4.7c-3,2.9-4.5,7.1-4.5,11.5c0,4.4,1.6,8.6,4.5,11.5c3.1,3.1,7.6,4.8,12.4,4.8V143.9
		L89,143.9z M22.8,99.9c-4.8,0-10.3,0.9-15,3c-4.3,1.9-7.8,5-7.8,10.2c0,4.7,3,7.4,2.9,7.3c1.3,1.2,3.3,3.1,8.6,4.3
		c2.4,0.5,7.4,1.3,12.5,1.8c5,0.5,9.9,1,11.9,1.5c1.6,0.4,4.3,1,4.3,4c0,3-2.8,3.9-3.3,4.1c-0.5,0.2-3.9,1.7-9.9,1.7
		c-4.5,0-9.9-1.3-11.8-2.1c-2.3-0.8-4.6-1.9-6.9-4.6c-0.6-0.7-1.4-2.5-1.4-4.3H1.2v15.4h6.1v-2.1c0-0.2,0.3-1.2,1.3-0.7
		c1.3,0.6,5,2.1,8.9,2.9c3.2,0.7,5.3,1.2,9.3,1.2c6.5,0,10-1.1,12.4-1.8c2.3-0.7,5.1-1.8,7.4-3.6c1.2-1,4-3.5,4-8.1
		c0-4.4-2.4-7.1-3.2-8c-1.1-1.1-2.5-2-4-2.7c-1.3-0.6-3.2-1.3-4.9-1.7c-3.1-0.8-10.3-1.7-13.7-2.1c-3.6-0.4-9.8-0.9-12.2-1.7
		c-0.8-0.2-2.3-1-2.3-2.7c0-1.3,0.7-2.3,2.1-3.2c2.2-1.4,6.6-2.2,11.2-2.2c5.5,0,10.1,1.2,13,2.5c1,0.4,2.2,1.1,3.1,1.8
		c1,0.9,2.5,2.6,3.1,5.1h4.9v-13.4h-5.5v1.6c0,0.5-0.5,1.2-1.5,0.6C38.3,102.7,31.4,99.9,22.8,99.9 M143.6,102.4l26.9,24.3
		l-0.3-16.3c0-2.1-0.4-3-2.7-3h-5.1v-4.9h23v4.9h-4.9c-2.4,0-2.5,0.8-2.5,3l0.4,31.2h-7.9l-31-27.6l0,19.6c0,2.1,0.1,3.1,2.3,3.1
		h5.5v4.9h-22.6v-4.9h5.3c2,0,1.9-1.9,1.9-3.2v-22.9c0-1.5-0.2-3.2-3.3-3.2h-4.3v-4.9H143.6z M211.6,136.6c0.2,0,1.2,0,1.4-0.1
		c0.5-0.1,0.9-0.5,1.1-0.9c0.1-0.2,0.1-0.9,0.1-1.1l0-7.7c0-0.2,0-0.3-0.3-0.7c-0.3-0.5-14.1-16-14.7-16.7c-0.8-0.9-2.2-2.2-4.2-2.2
		h-4.8v-4.9h27v4.9h-3.2c-0.8,0-1.3,0.7-0.6,1.5c0,0,9.1,10.8,9.2,11c0.1,0.1,0.2,0.1,0.3,0c0.1-0.1,9.3-10.9,9.4-11
		c0.4-0.5,0.1-1.5-0.8-1.5h-3.3v-4.9H250v4.9H245c-1.8,0-2.5,0.3-3.9,1.9c-0.6,0.7-14.5,16.5-14.9,17c-0.2,0.2-0.2,0.5-0.2,0.7v7.7
		c0,0.2,0,0.9,0.1,1.1c0.2,0.5,0.6,0.8,1.1,0.9c0.2,0.1,1.1,0.1,1.3,0.1h5v4.9h-26.8v-4.9L211.6,136.6L211.6,136.6z"/>
</g>
</svg>
