<?xml version="1.0" encoding="utf-8"?>
<!-- Generator: Adobe Illustrator 24.1.0, SVG Export Plug-In . SVG Version: 6.00 Build 0)  -->
<svg version="1.1" id="Capa_1" xmlns="http://www.w3.org/2000/svg" xmlns:xlink="http://www.w3.org/1999/xlink" x="0px" y="0px"
	 viewBox="0 0 250 250" style="enable-background:new 0 0 250 250;" xml:space="preserve">
<style type="text/css">
	.st0{fill:#EB5E30;}
	.st1{fill:#C3303C;}
	.st2{fill:#273680;}
	.st3{fill:#FFFFFF;}
	.st4{fill:#F7E000;}
	.st5{fill:#0E85C7;}
	.st6{fill:#020203;}
	.st7{fill-rule:evenodd;clip-rule:evenodd;fill:#FFFFFF;}
	.st8{fill-rule:evenodd;clip-rule:evenodd;fill:#314697;}
	.st9{fill:#256EB6;}
	.st10{fill:#FAB61F;}
</style>
<path class="st9" d="M22.6,115c-1.8,7.4-3.5,14.6-5.3,21.8c-0.4,1.6,0.1,4.1-3,4.1c-2.8,0-5.3-0.5-6.3-3.5c-0.9-2.8-1.6-5.6-2.3-8.5
	c-1.9-7.8-3.7-15.5-5.6-23.5c2.7,0,5.1,0,7.7,0c1.7,8.6,3.3,17.2,4.9,25.8c0.2,0,0.3-0.1,0.5-0.1c1.9-8.5,3.9-17.1,5.8-25.5
	c0.5-0.1,0.7-0.3,0.9-0.3c6.7-0.2,6.7-0.2,8.1,6.2c1.4,6.5,2.8,13,4.3,20.3c1.9-9.2,3.6-17.7,5.4-26.4c2.3,0,4.7,0,7.3,0
	c-3.1,11.8-6.1,23.4-9.1,35c-6.5,0.8-7.9-0.1-9.2-6.1C25.2,128.1,24,121.7,22.6,115z"/>
<path class="st9" d="M106.1,140.7c-2.4,0-4.4,0-6.9,0c0-4.3,0.1-8.6,0-12.9c0-1.8,0-3.7-0.7-5.3c-0.5-1.3-2-2.9-3.2-2.9
	c-1.4-0.1-3.3,1-4.1,2.2c-0.9,1.4-1.1,3.4-1.2,5.2c-0.1,4.5,0,9,0,13.7c-2.4,0-4.5,0-6.8,0c0-8.5,0-17,0-25.7
	c2.4,0.5,5.2-1.5,7.1,1.6c5.9-4,9.7-3.7,14.2,1c2.7-1.2,5-2.7,7.6-3.4c4.5-1.2,9.1,1.9,9.5,6.8c0.5,6.5,0.1,13.1,0.1,19.8
	c-2.2,0-4.3,0-6.8,0c0-3.4,0-6.8,0-10.2c0-1.7,0-3.4,0-5.1c-0.1-3.7-1.7-6-4.2-6c-2.6,0-4.7,2.6-4.7,6
	C106.1,130.3,106.1,135.3,106.1,140.7z"/>
<path class="st9" d="M58.8,122.2c-1.4-4.6-5.1-5.2-11.7-1.7c-2.4-3.8-2.1-5.1,2.2-5.9c3.2-0.6,6.5-0.7,9.7-0.2
	c4.1,0.6,6.8,4.2,6.9,8.9c0.2,5.8,0,11.5,0,17.6c-2.5,0.9-4.9,0.4-6.1-2c-2.9,0.7-5.6,1.7-8.3,1.9c-3.9,0.2-6.6-1.9-7.8-5.3
	c-1.1-3.3,0.1-7.4,3.4-9.1C50.8,124.5,54.8,123.5,58.8,122.2z M58.8,127.9c-5.6-0.1-8.2,1.4-8.2,4.6c0.1,2.5,1.3,3.7,3.9,3.5
	C58,135.8,59.5,133.1,58.8,127.9z"/>
<path class="st9" d="M147.7,140.7c-2.7,1.1-5,0.3-6.3-2c-2.6,0.7-5.1,1.7-7.6,2c-4.1,0.4-7.5-2-8.5-5.4c-1-3.6,0.5-7.5,4.1-9.6
	c1.6-0.9,3.5-1.5,5.3-2c1.8-0.5,3.7-0.6,5.6-0.9c-1-5.2-4.2-5.8-12.2-2.2c-1.5-4.6-0.9-5.6,4-6.4c1.2-0.2,2.5-0.4,3.7-0.4
	c7.5-0.4,11.7,3.6,11.8,11.1C147.8,130.1,147.7,135.3,147.7,140.7z M140.7,128.1c-5.2-0.6-8.6,1.1-8.6,4.3c0,2.1,1,3.6,3.4,3.7
	C139.2,136.1,141,133.5,140.7,128.1z"/>
<path class="st9" d="M183.7,135.2c0,2.1,0,3.6,0,5.6c-1.6,0-3,0-4.4,0c-5.4-0.1-8.2-2.4-8.3-7.7c-0.2-9.1-0.1-18.1-0.1-27.4
	c2.2,0,4.3,0,6.7,0c0,2.5,0,5,0,7.9c2.2,0.1,4,0.2,6.1,0.4c0,2.1,0,4.1,0,6.3c-1.9,0.1-3.7,0.2-5.8,0.3c0,3.9-0.3,7.9,0.1,11.8
	C178.2,135.3,180.9,135.6,183.7,135.2z"/>
<path class="st9" d="M71.4,105.5c2.3,0,4.3,0,6.5,0c0,11.7,0,23.3,0,35.1c-2.1,0-4.2,0-6.5,0C71.4,129,71.4,117.4,71.4,105.5z"/>
<path class="st9" d="M159.6,140.6c-2.4,0-4.6,0-6.9,0c0-8.5,0-16.9,0-25.5c2,0,3.9,0,6,0c0.1,1,0.2,2,0.4,3.5
	c2.3-2.9,4.5-5.3,8.6-4.7c0,2.1,0,4.1,0,6.2c-6.6,0.5-7.8,1.8-7.8,8.5c0,3.6,0,7.3,0,10.9C159.8,139.8,159.7,140,159.6,140.6z"/>
<path class="st10" d="M218.5,99.1c-0.2-5.1,2.2-7,5.7-5.4c1,0.4,2.1,1.9,2,2.9c-0.1,4.6-0.5,9.3-1.1,13.9c-0.1,0.9-1.5,2-2.5,2.3
	c-1.5,0.5-2.8-0.1-3-2.1C219.3,106.4,218.8,102.3,218.5,99.1z"/>
<path class="st10" d="M218.4,148c0.4-4.3,0.9-8.4,1.2-12.4c0.2-2,1.4-2.7,3-2.2c1,0.3,2.4,1.4,2.5,2.3c0.6,4.6,0.9,9.2,1.2,13.8
	c0.2,2.7-1.7,3.3-3.7,3.4c-2,0-4.3-0.1-4.2-3.1C218.4,149.1,218.4,148.4,218.4,148z"/>
<path class="st10" d="M198.9,105.6c1.3,0.6,1.9,0.8,2.5,1.1c3.7,2.4,7.4,4.8,11.1,7.1c1.6,1,2.4,2.2,1.4,4.2
	c-1.2,2.3-2.6,1.4-4.2,0.6c-4-1.8-8.1-3.5-11.9-5.6c-1-0.5-2-2.6-1.7-3.6C196.4,108,197.9,106.9,198.9,105.6z"/>
<path class="st10" d="M199.3,141c-1.3-1.7-2.9-2.8-3.2-4.3c-0.3-1,0.8-3.1,1.8-3.6c4.2-2.2,8.6-4.1,12.9-6c0.7-0.3,2.3-0.1,2.6,0.4
	c0.6,0.9,1.1,3,0.6,3.3C209.4,134.1,204.6,137.3,199.3,141z"/>
<path class="st10" d="M249.2,111c-0.4,0.4-0.9,1.5-1.8,2c-4.5,2.2-9,4.3-13.6,6.2c-0.7,0.3-2.5-0.3-2.7-0.8
	c-0.3-1.1-0.4-3.1,0.3-3.6c4.1-3,8.4-5.8,12.7-8.4C246.1,105.2,249.1,107.8,249.2,111z"/>
<path class="st10" d="M249.9,135.5c-1.2,1.6-1.9,3.2-3.1,4c-0.9,0.5-2.6,0.4-3.6-0.2c-3.7-2.2-7.4-4.4-10.8-7c-1-0.8-1.7-3-1.3-4.2
	c0.6-2.1,2.3-1.3,3.9-0.6c3.9,1.8,7.8,3.5,11.7,5.4C247.7,133.3,248.6,134.3,249.9,135.5z"/>
</svg>
