<svg width="40" height="39" viewBox="0 0 40 39" fill="none" xmlns="http://www.w3.org/2000/svg">
<path d="M20.1248 0C9.51187 0 0.899414 8.58148 0.899414 19.1562C0.899414 29.7404 9.51187 38.3125 20.1248 38.3125C30.7472 38.3125 39.3502 29.731 39.3502 19.1562C39.3502 8.58148 30.7472 0 20.1248 0ZM20.1248 34.6815C11.5218 34.6815 4.54351 27.7284 4.54351 19.1562C4.54351 10.5841 11.5218 3.63098 20.1248 3.63098C28.7279 3.63098 35.7061 10.5841 35.7061 19.1562C35.7061 27.7284 28.7279 34.6815 20.1248 34.6815Z" fill="#136284"/>
<path d="M20.1235 37.4894C9.96138 37.4894 1.72461 29.2823 1.72461 19.1567C1.72461 9.03112 9.96138 0.823975 20.1235 0.823975" fill="#136284"/>
</svg>
