<svg width="46" height="28" viewBox="0 0 46 28" fill="none" xmlns="http://www.w3.org/2000/svg">
<path d="M21.302 23.5062H11.1775C7.53338 23.5062 4.5749 20.3119 4.5749 16.3773V11.0737C4.5749 7.12894 7.53338 3.94475 11.1775 3.94475H21.302V0H11.0272C5.46714 0 0.958984 4.86755 0.958984 10.8709V16.57C0.958984 22.5733 5.46714 27.4408 11.0272 27.4408H21.302V23.5062Z" fill="#136284"/>
<path d="M34.9779 0H24.8721V3.93461H34.8276C38.4717 3.93461 41.4301 7.12894 41.4301 11.0635V16.3671C41.4301 20.3119 38.4717 23.4961 34.8276 23.4961H24.8721V27.4307H34.9779C40.5379 27.4307 45.0461 22.5631 45.0461 16.5598V10.8607C45.0461 4.86755 40.5379 0 34.9779 0Z" fill="#136284"/>
<path d="M13.877 11.8056L13.877 15.6692L32.2007 15.6692L32.2007 11.8056L13.877 11.8056Z" fill="#136284"/>
</svg>
