<svg width="48" height="38" viewBox="0 0 48 38" fill="none" xmlns="http://www.w3.org/2000/svg">
<path d="M25.5039 37.5776H28.5898L28.5898 7.62939e-06H25.5039L25.5039 37.5776Z" fill="#136284"/>
<path d="M19.3545 30.9575H22.4404L22.4404 6.51165H19.3545L19.3545 30.9575Z" fill="#136284"/>
<path d="M31.627 30.9646H34.7129V6.69369H31.627L31.627 30.9646Z" fill="#136284"/>
<path d="M37.8525 24.9331H40.9385V12.4234H37.8525V24.9331Z" fill="#136284"/>
<path d="M13.1797 36.1462H16.2656L16.2656 1.31937H13.1797L13.1797 36.1462Z" fill="#136284"/>
<path d="M7.00391 25.083H10.0898L10.0898 12.4178H7.00391L7.00391 25.083Z" fill="#136284"/>
<path d="M43.9492 20.7583H47.0352V16.7536H43.9492V20.7583Z" fill="#136284"/>
<path d="M0.83692 20.6538H3.92285L3.92285 16.6492H0.83692L0.83692 20.6538Z" fill="#136284"/>
</svg>
