<svg width="111" height="75" viewBox="0 0 111 75" fill="none" xmlns="http://www.w3.org/2000/svg">
<path d="M6.62815e-06 53.8619V21.1381C6.62815e-06 9.46375 9.08557 0 20.3058 0H90.6942C101.905 0 111 9.46375 111 21.1381V75H20.2968C9.08558 74.9919 -0.00896234 65.5282 6.62815e-06 53.8619Z" fill="#A5D3E7"/>
<path d="M44 34.8904H73" stroke="white" stroke-width="5.6693" stroke-miterlimit="10"/>
<path d="M58.5002 34.1731V43.1203L44.9521 55.8326L58.5002 43.1203L72.0484 55.8326" stroke="white" stroke-width="5.6693" stroke-miterlimit="10"/>
<path d="M58.1151 30.593C60.644 30.593 62.694 28.6694 62.694 26.2965C62.694 23.9236 60.644 22 58.1151 22C55.5862 22 53.5361 23.9236 53.5361 26.2965C53.5361 28.6694 55.5862 30.593 58.1151 30.593Z" fill="white"/>
<path d="M55.0703 46.3402C55.0703 46.3402 58.8861 42.4057 58.5004 36.677Z" fill="white"/>
<path d="M55.0703 46.3402C55.0703 46.3402 58.8861 42.4057 58.5004 36.677" stroke="white" stroke-width="5.6693" stroke-miterlimit="10"/>
<path d="M61.9633 46.3402C61.9633 46.3402 58.1476 42.4057 58.5332 36.677Z" fill="white"/>
<path d="M61.9633 46.3402C61.9633 46.3402 58.1476 42.4057 58.5332 36.677" stroke="white" stroke-width="5.6693" stroke-miterlimit="10"/>
<path d="M62.6936 47.0553C62.6936 47.0553 58.5003 42.7588 54.2988 47.0553Z" fill="white"/>
<path d="M62.6936 47.0553C62.6936 47.0553 58.5003 42.7588 54.2988 47.0553" stroke="white" stroke-width="5.6693" stroke-miterlimit="10"/>
<path d="M64.3428 34.8574C64.3428 34.8574 58.1308 34.9806 58.8119 40.7709Z" fill="white"/>
<path d="M64.3428 34.8574C64.3428 34.8574 58.1308 34.9806 58.8119 40.7709" stroke="white" stroke-width="5.6693" stroke-miterlimit="10"/>
<path d="M52.6582 34.8574C52.6582 34.8574 58.8701 34.9806 58.1891 40.7709Z" fill="white"/>
<path d="M52.6582 34.8574C52.6582 34.8574 58.8701 34.9806 58.1891 40.7709" stroke="white" stroke-width="5.6693" stroke-miterlimit="10"/>
</svg>
