<svg width="90" height="68" viewBox="0 0 90 68" fill="none" xmlns="http://www.w3.org/2000/svg">
<g clip-path="url(#clip0_1350_372)">
<path d="M45.1 68.0001C32.2 68.0001 19.2 67.9001 6.3 68.0001C2.6 68.0001 0.3 65.7001 0.3 62.0001C0.3 56.3001 0.3 50.5001 0.2 44.8001C0.1 35.3001 0.1 25.8001 0 16.3001C0 15.5001 0.1 14.6001 0.3 13.8001C0.9 11.4001 2.9 9.90006 5.6 9.90006C12.8 9.90006 20.1 9.90006 27.2 9.90006C28.5 9.90006 28.8 9.50006 28.7 8.40006C28.6 7.00006 28.7 5.80006 28.9 4.40006C29.3 1.70006 31.4 -0.19994 34.1 -0.19994C41.4 -0.19994 48.7 -0.29994 56 -0.19994C59 -0.19994 61.4 2.30006 61.4 5.30006C61.4 6.50006 61.5 7.70006 61.4 8.80006C61.3 9.90006 61.8 10.2001 62.8 10.2001C69.8 10.2001 76.7 10.2001 83.7 10.2001C84.4 10.2001 85.2 10.2001 86 10.4001C88.5 10.9001 90.1 12.9001 90.1 15.6001C90.1 20.8001 90.1 26.0001 90.1 31.1001C90.1 41.6001 90.1 52.0001 90.1 62.5001C90.1 65.0001 88.9 66.9001 86.7 67.6001C85.9 67.9001 84.9 68.0001 84 68.0001C71.2 68.0001 58.1 68.0001 45.1 68.0001ZM5.7 15.4001C5.7 31.1001 5.7 46.8001 5.7 62.5001C8.3 62.5001 10.8 62.5001 13.4 62.5001C13.4 61.3001 13.4 60.2001 13.4 59.0001C15.1 59.0001 16.7 59.0001 18.4 59.0001C18.4 59.7001 18.5 60.5001 18.4 61.1001C18.2 62.3001 18.7 62.6001 19.9 62.6001C36.8 62.6001 53.8 62.6001 70.7 62.6001C71.2 62.6001 71.5 62.6001 72.2 62.5001C72.2 61.2001 72.2 60.1001 72.2 59.0001C73.7 59.0001 75.2 59.0001 76.6 59.0001C77.3 59.0001 77.6 59.3001 77.6 60.0001C77.6 60.9001 77.6 61.7001 77.6 62.7001C79.8 62.7001 81.7 62.7001 83.7 62.7001C85.3 62.7001 85.3 62.7001 85.3 61.1001C85.3 53.4001 85.3 45.6001 85.3 38.0001C85.3 31.0001 85.3 24.0001 85.3 16.9001C85.3 15.9001 85 15.4001 83.9 15.5001C83.1 15.6001 82.2 15.6001 81.4 15.5001C80.5 15.4001 80.1 15.8001 80.2 16.7001C80.2 18.0001 80.2 19.2001 80.2 20.4001C80.1 21.9001 79.3 22.8001 77.8 22.9001C75.9 23.0001 73.9 23.0001 72 22.9001C70.5 22.8001 69.6 21.9001 69.6 20.4001C69.6 19.3001 69.5 18.1001 69.6 17.0001C69.7 15.9001 69.3 15.5001 68.1 15.5001C53 15.5001 37.8 15.5001 22.7 15.5001C22.3 15.5001 21.9 15.5001 21.5 15.6001C21.4 17.3001 21.4 19.0001 21.2 20.6001C21 22.1001 20.2 22.8001 18.7 22.9001C16.9 23.0001 15.1 23.0001 13.2 22.9001C11.7 22.8001 10.9 22.1001 10.8 20.5001C10.7 19.1001 10.8 17.9001 10.7 16.5001C10.7 16.1001 10.2 15.6001 10 15.6001C8.6 15.4001 7.3 15.4001 5.7 15.4001ZM45.3 9.90006C47.8 9.90006 50.4 9.90006 52.9 9.90006C56.3 9.90006 56.3 9.90006 56.3 6.40006C56.3 4.90006 56.2 4.90006 54.8 4.90006C49.2 4.90006 43.6 4.90006 38 4.90006C34.3 4.90006 34.3 4.90006 34.3 8.60006C34.3 9.70006 34.7 9.90006 35.7 9.90006C38.8 9.90006 42 9.90006 45.3 9.90006ZM15 15.3001C15 16.4001 15 17.1001 15 17.8001C15 18.1001 15.2 18.5001 15.4 18.5001C15.8 18.6001 16.5 18.5001 16.5 18.4001C16.7 17.5001 16.8 16.6001 16.6 15.7001C16.6 15.6001 15.7 15.5001 15 15.3001ZM73.6 15.2001C73.6 16.3001 73.6 17.0001 73.6 17.8001C73.6 18.1001 73.9 18.5001 74.1 18.5001C74.6 18.5001 75.3 18.4001 75.3 18.3001C75.4 17.4001 75.5 16.5001 75.3 15.7001C75.4 15.5001 74.5 15.5001 73.6 15.2001Z" fill="#1B6486"/>
</g>
<defs>
<clipPath id="clip0_1350_372">
<rect width="90" height="68" fill="white"/>
</clipPath>
</defs>
</svg>
