<svg width="111" height="75" viewBox="0 0 111 75" fill="none" xmlns="http://www.w3.org/2000/svg">
<g clip-path="url(#clip0_1345_372)">
<path d="M6.62815e-06 53.8619V21.1381C6.62815e-06 9.46375 9.08557 0 20.3058 0H90.6942C101.905 0 111 9.46375 111 21.1381V75H20.2968C9.08558 74.9919 -0.00896234 65.5282 6.62815e-06 53.8619Z" fill="#F68C0F"/>
<path d="M36 38.395C36 36.3803 37.28 35 38.85 35C40.42 35 41.7 36.3692 41.7 38.395C41.7 40.343 40.42 41.7233 38.85 41.7233C37.28 41.7233 36 40.343 36 38.395ZM52.07 38.395C52.07 36.3803 53.35 35 54.92 35C56.49 35 57.77 36.3692 57.77 38.395C57.77 40.343 56.49 41.7233 54.92 41.7233C53.35 41.7122 52.07 40.343 52.07 38.395ZM68.13 38.395C68.13 36.3803 69.42 35 70.99 35C72.56 35 73.84 36.3692 73.84 38.395C73.84 40.343 72.56 41.7233 70.99 41.7233C69.42 41.7122 68.13 40.343 68.13 38.395Z" fill="white" stroke="white" stroke-width="2.8346" stroke-miterlimit="10"/>
</g>
<defs>
<clipPath id="clip0_1345_372">
<rect width="111" height="75" fill="white"/>
</clipPath>
</defs>
</svg>
