<svg width="32" height="32" viewBox="0 0 32 32" fill="none" xmlns="http://www.w3.org/2000/svg">
<path d="M15.9942 5.25152L15.9942 5.25179L16.0058 5.25152C16.7648 5.23384 17.5195 5.3703 18.2242 5.65263C18.9289 5.93497 19.569 6.35732 20.1059 6.89414C20.6427 7.43096 21.065 8.07109 21.3474 8.77581C21.6297 9.48054 21.7662 10.2352 21.7485 10.9942L21.7482 10.9942L21.7485 11.0058C21.7662 11.7648 21.6297 12.5195 21.3474 13.2242C21.065 13.9289 20.6427 14.569 20.1059 15.1059C19.569 15.6427 18.9289 16.065 18.2242 16.3474C17.5195 16.6297 16.7648 16.7662 16.0058 16.7485L16.0058 16.7482L15.9942 16.7485C15.2352 16.7662 14.4805 16.6297 13.7758 16.3474C13.0711 16.065 12.431 15.6427 11.8941 15.1059C11.3573 14.569 10.935 13.9289 10.6526 13.2242C10.3703 12.5195 10.2338 11.7648 10.2515 11.0058L10.2518 11.0058L10.2515 10.9942C10.2338 10.2352 10.3703 9.48054 10.6526 8.77581C10.935 8.07109 11.3573 7.43096 11.8941 6.89414C12.431 6.35732 13.0711 5.93497 13.7758 5.65263C14.4805 5.3703 15.2352 5.23384 15.9942 5.25152ZM14.7398 14.0434C15.1411 14.1984 15.5702 14.2686 16 14.2495C16.4298 14.2686 16.8589 14.1984 17.2602 14.0434C17.6654 13.887 18.0333 13.6475 18.3404 13.3404C18.6475 13.0333 18.887 12.6654 19.0434 12.2602C19.1984 11.8589 19.2686 11.4298 19.2495 11C19.2686 10.5702 19.1984 10.1411 19.0434 9.73976C18.887 9.33462 18.6475 8.96669 18.3404 8.65959C18.0333 8.3525 17.6654 8.11303 17.2602 7.95657C16.8589 7.80156 16.4298 7.73142 16 7.75053C15.5702 7.73142 15.1411 7.80156 14.7398 7.95657C14.3346 8.11303 13.9667 8.3525 13.6596 8.65959C13.3525 8.96669 13.113 9.33462 12.9566 9.73976C12.8016 10.1411 12.7314 10.5702 12.7505 11C12.7314 11.4298 12.8016 11.8589 12.9566 12.2602C13.113 12.6654 13.3525 13.0333 13.6596 13.3404C13.9667 13.6475 14.3346 13.887 14.7398 14.0434Z" fill="white" stroke="#F58B11" stroke-width="0.5"/>
<path d="M16.4664 18C12.7036 18 9.0751 20.0714 8 25H11.1581C11.8972 23 13.2411 20.9286 16.4664 20.9286C19.6917 20.9286 20.9012 22.6429 21.7747 25H25C23.7905 19.7857 20.2292 18 16.4664 18Z" fill="white" stroke="#F58B11" stroke-width="0.6"/>
<circle cx="16" cy="16" r="14.5" stroke="white" stroke-width="3"/>
</svg>
