<svg width="71" height="74" viewBox="0 0 71 74" fill="none" xmlns="http://www.w3.org/2000/svg">
<path d="M22.9179 19.2955C22.8835 20.7335 22.8491 21.8699 22.8376 22.6701C22.8262 23.4006 23.3994 24.0036 24.1217 24.0152L46.4544 24.6183L46.3169 29.7206C41.9833 29.6047 29.487 29.222 24.4885 29.0713C23.4567 29.0365 22.6084 29.8598 22.574 30.9151C22.4822 34.4751 22.3561 39.7747 22.2873 42.5694C22.2644 43.6015 23.0555 44.4596 24.0873 44.4828C31.5506 44.6915 42.7056 45.0278 46.4888 45.1438C47.1194 45.167 47.6811 45.5033 48.0021 46.0599C50.4326 50.3158 55.5343 59.8248 58.7787 65.8665C59.2832 66.8174 60.464 67.1305 61.3812 66.597C65.2332 64.3589 65.7606 64.0458 68.5121 62.4455C69.7044 64.5329 70.1744 65.449 70.9998 66.8174C68.6152 68.2089 62.6193 71.6994 59.0768 73.752C58.1597 74.2854 56.9903 73.9259 56.4973 72.975C48.0251 56.5778 46.0646 52.7394 45.159 51.0811C44.8379 50.4897 44.2303 50.1186 43.5539 50.0954L19.0314 49.4344C18.0111 49.4112 17.1971 48.5415 17.2315 47.5094L17.9767 19.168L22.9179 19.2955Z" fill="#136284"/>
<path d="M20.7867 14.8201C24.8327 14.8201 28.1125 11.5025 28.1125 7.41007C28.1125 3.3176 24.8327 0 20.7867 0C16.7408 0 13.4609 3.3176 13.4609 7.41007C13.4609 11.5025 16.7408 14.8201 20.7867 14.8201Z" fill="#136284"/>
<path d="M38.1652 54.6766L43.2096 54.9897C40.4237 64.6263 31.4127 71.4565 21.0488 70.9811C8.88498 70.4245 -0.527343 59.9993 0.0229512 47.6956C0.401279 39.1143 5.53736 31.8898 12.737 28.4805L12.416 34.3598C8.1054 37.3285 5.18196 42.2453 4.92974 47.916C4.50556 57.4829 11.8199 65.5888 21.2781 66.0295C28.9363 66.3773 35.6545 61.588 38.1538 54.6766" fill="#136284"/>
<path d="M38.1652 54.6766L43.2096 54.9897C40.4237 64.6263 31.4127 71.4565 21.0488 70.9811C8.88498 70.4245 -0.527343 59.9993 0.0229512 47.6956C0.401279 39.1143 5.53736 31.8898 12.737 28.4805L12.416 34.3598C8.1054 37.3285 5.18196 42.2453 4.92974 47.916C4.50556 57.4829 11.8199 65.5888 21.2781 66.0295C28.9363 66.3773 35.6545 61.588 38.1538 54.6766" fill="#136284"/>
</svg>
