<svg width="90" height="74" viewBox="0 0 90 74" fill="none" xmlns="http://www.w3.org/2000/svg">
<path d="M30.341 37.6646C30.2293 47.359 37.973 55.2964 47.6153 55.4085C50.0725 55.4334 52.4179 54.9475 54.5524 54.0503L30.6389 34.7363C30.4651 35.6958 30.3534 36.6677 30.341 37.6646Z" fill="#136284"/>
<path d="M63.5364 39.0853C63.648 29.3909 55.9044 21.4535 46.262 21.3414C43.4699 21.304 40.8266 21.9519 38.4688 23.0983L63.0524 42.9481C63.3502 41.7145 63.524 40.4186 63.5364 39.0853Z" fill="#136284"/>
<path d="M73.4904 50.7846C73.4904 50.7846 72.9444 50.3983 69.8048 47.8065C71.1946 46.062 72.9568 43.9312 73.2547 43.5823C73.416 43.3954 74.1358 42.4733 74.3095 42.2615C75.4264 40.9282 76.3199 39.7071 76.9776 38.0374C77.5732 36.4922 76.6177 35.0219 76.1833 34.2742C75.476 33.078 71.1078 25.477 61.6392 20.3183C58.2513 18.4742 54.4664 16.6175 49.6886 15.9447C44.8116 15.2593 40.158 14.9603 32.0296 17.2904C27.6738 13.7765 27.6738 13.7765 27.6738 13.7765C27.6738 13.7765 33.6801 10.5243 43.2728 10.7236C49.0681 10.8483 56.1417 12.1192 63.2524 15.8325C74.0365 21.4523 79.323 30.0003 80.7005 32.5422C82.8474 36.4922 82.3882 39.1713 79.9931 42.6229C78.8266 44.3051 77.7594 45.5387 76.1337 47.5822L73.4904 50.7846Z" fill="#136284"/>
<path d="M87.0364 74L90 70.3008L2.96356 3.27281e-05L-4.67401e-06 3.69928L87.0364 74Z" fill="#136284"/>
<path d="M16.8619 23.6602C16.8619 23.6602 17.4079 24.0464 20.5476 26.6382C19.1577 28.3827 17.3955 30.5135 17.0977 30.8624C16.9364 31.0493 16.2166 31.9714 16.0429 32.1832C14.926 33.5165 14.0325 34.7377 13.3748 36.4074C12.7791 37.9525 13.7347 39.4229 14.169 40.1705C14.8764 41.3667 19.2446 48.9677 28.7132 54.1264C32.101 55.9706 35.886 57.8272 40.6637 58.5001C45.5407 59.1854 50.1944 59.4845 58.3227 57.1543C62.6785 60.6682 62.6785 60.6682 62.6785 60.6682C62.6785 60.6682 56.6722 63.9205 47.0795 63.7211C41.2842 63.5965 34.2107 62.3255 27.0999 58.6122C16.3159 52.9925 11.0294 44.4445 9.65189 41.9025C7.50501 37.9525 7.96416 35.2735 10.3592 31.8219C11.5257 30.1397 12.593 28.9061 14.2186 26.8625L16.8619 23.6602Z" fill="#136284"/>
</svg>
