<svg width="88" height="74" viewBox="0 0 88 74" fill="none" xmlns="http://www.w3.org/2000/svg">
<path d="M31.2886 0.191406C24.812 0.191406 23.1579 4.54568 22.7507 6.52598C22.6362 7.05088 22.1654 7.44455 21.5928 7.45648C18.3609 7.51613 15.2689 9.01925 13.7802 11.5602C12.6478 13.4928 12.7877 15.8191 12.9913 17.0836C13.0677 17.6085 12.7495 18.1215 12.2279 18.3243C10.4974 18.9565 6.89646 20.6982 5.54771 24.4799C4.26257 28.1065 5.2805 31.4467 5.9676 33.0453C6.19664 33.5821 5.98033 34.2024 5.44592 34.4887C3.62637 35.4431 0 38.1869 0 44.3902C0 50.7367 4.38982 53.1226 6.45112 53.898C7.01098 54.1008 7.32908 54.6496 7.20184 55.1984C6.28571 59.159 8.24522 62.8452 10.8537 64.8135C13.6021 66.8893 16.8849 66.7581 18.6917 66.4598C19.3534 66.3525 20.015 66.7342 20.1295 67.3426C20.7276 70.5636 24.672 73.9993 30.5506 73.9993C37.9814 73.9993 41.3279 70.6351 41.7732 66.1377V7.33719C41.7605 7.34912 39.6737 0.191406 31.2886 0.191406ZM30.945 69.3348C25.7409 69.7166 23.9849 65.9349 23.6796 62.6662C23.6032 61.855 22.7125 61.354 21.9109 61.688C19.7733 62.5947 16.096 63.5729 13.3985 61.2228C11.0063 59.1351 11.07 55.6278 12.546 52.9198C12.9277 52.2279 12.4696 51.4167 11.668 51.2497C9.11046 50.7248 4.84788 48.9712 5.0133 43.1973C5.14054 38.8788 9.1359 37.1252 11.668 36.4333C12.5205 36.2066 12.8386 35.2284 12.2915 34.5723C10.7646 32.7709 8.71601 29.4903 9.96297 26.0188C11.2863 22.3326 14.8618 21.1396 16.9103 20.7579C17.6356 20.6267 18.0682 19.9109 17.8392 19.2428C17.2921 17.6323 16.7958 14.9124 18.7172 12.9321C20.524 11.0711 22.4326 11.0353 24.1249 11.4648C24.9011 11.6557 25.6645 11.1785 25.7409 10.4269C25.9572 8.26768 27.0005 4.62918 31.5049 4.62918C36.3655 4.62918 36.8236 8.78066 36.8236 8.78066L37.0144 61.8312C36.6709 65.3026 36.6072 68.9173 30.945 69.3348Z" fill="#136284"/>
<path d="M82.5539 34.2973C82.0195 34.011 81.8031 33.3907 82.0322 32.8539C82.7193 31.2553 83.7372 27.927 82.4521 24.2885C81.1033 20.5068 77.5151 18.777 75.7719 18.1328C75.2375 17.942 74.9194 17.4171 75.0085 16.8922C75.2121 15.6276 75.352 13.3014 74.2196 11.3688C72.7309 8.82783 69.6389 7.32471 66.407 7.26506C65.8344 7.25314 65.3636 6.85946 65.2491 6.33456C64.8292 4.35427 63.1751 0 56.7112 0C48.326 0 46.2266 7.1577 46.2266 7.1577V65.9582C46.6719 70.4437 50.0311 73.8198 57.4492 73.8198C63.3278 73.8198 67.2722 70.3841 67.8703 67.1631C67.9848 66.5428 68.6464 66.173 69.3081 66.2803C71.1149 66.5786 74.385 66.7098 77.1461 64.6341C79.7546 62.6657 81.7141 58.9914 80.7979 55.0189C80.6707 54.4701 81.0015 53.9214 81.5487 53.7186C83.61 52.9432 87.9998 50.5573 87.9998 44.2108C87.9871 38.0074 84.3607 35.2755 82.5539 34.2973ZM76.3063 51.0821C75.5047 51.2492 75.0466 52.0604 75.4284 52.7523C76.9171 55.4603 76.9807 58.9675 74.5759 61.0552C71.8783 63.4053 68.2011 62.4271 66.0634 61.5205C65.2745 61.1864 64.3711 61.6875 64.2948 62.4987C63.9894 65.7674 62.2335 69.549 57.0293 69.1673C51.3798 68.7497 51.3035 65.1351 50.9727 61.6994L51.1635 8.64889C51.1635 8.64889 51.6089 4.49742 56.4822 4.49742C60.9865 4.49742 62.0299 8.14785 62.2462 10.2952C62.3225 11.0467 63.086 11.5239 63.8622 11.333C65.5545 10.9036 67.4758 10.9394 69.2699 12.8004C71.1912 14.7807 70.695 17.5006 70.1479 19.1111C69.9188 19.7791 70.3387 20.4949 71.0767 20.6261C73.1253 21.0079 76.7008 22.1889 78.0241 25.887C79.2711 29.3585 77.2225 32.6272 75.6956 34.4405C75.1357 35.0966 75.4538 36.0629 76.3191 36.3015C78.8384 36.9815 82.8465 38.747 82.9738 43.0655C83.1265 48.8036 78.8639 50.5453 76.3063 51.0821Z" fill="#136284"/>
</svg>
