<svg width="71" height="74" viewBox="0 0 71 74" fill="none" xmlns="http://www.w3.org/2000/svg">
<g clip-path="url(#clip0_1365_372)">
<path d="M9.97368 40.2434H14.4369C14.4369 40.2434 13.876 17.1186 34.6168 17.1186C52.8277 17.1186 54.6416 30.5136 54.6416 35.4681C54.6416 44.9473 48.6151 48.1109 45.4884 53.0534C42.2186 58.2108 47.9348 67.0692 32.5403 68.4899C32.5403 71.761 32.5165 73.0146 32.5165 73.0146C32.5165 73.0146 42.3379 72.7758 46.4909 66.8901C49.4862 62.6401 48.2213 57.9005 49.3788 55.9068C51.694 51.9073 59.2361 46.6425 59.2361 35.7904C59.2361 24.1982 51.9088 12.582 34.223 12.582C16.5372 12.582 9.5202 29.2959 9.97368 40.2434Z" fill="#136284"/>
<path d="M23.6982 40.2288H28.2331C28.2331 40.2288 27.5648 30.8213 34.546 30.8213C41.396 30.8213 40.6322 40.2407 40.6322 40.2407H45.1789C45.1789 40.2407 46.1695 26.3086 34.5221 26.3086C23.2925 26.3086 23.7102 39.0947 23.6982 40.2288Z" fill="#136284"/>
<path d="M25.8972 48.6607L22.6822 45.4445L0 68.1357L3.215 71.3521L25.8972 48.6607Z" fill="#136284"/>
<path d="M71.0003 3.21629L67.7853 0L53.9717 13.8191L57.1867 17.0354L71.0003 3.21629Z" fill="#136284"/>
</g>
<defs>
<clipPath id="clip0_1365_372">
<rect width="71" height="74" fill="white"/>
</clipPath>
</defs>
</svg>
