<svg width="294" height="235" viewBox="0 0 294 235" fill="none" xmlns="http://www.w3.org/2000/svg">
<g clip-path="url(#clip0_1321_458)">
<path d="M143.4 126.8C144.7 132.1 142 137.2 139.7 141.9C137.9 145.6 136.6 149.3 138.6 153.1C140.5 156.8 144.3 159.5 147.6 162.1C149.4 163.6 151.2 165.1 152.8 166.8C154.3 168.5 155.3 170.4 156.5 172.4C158.8 176.4 161.4 181 159.5 185.7C158.2 188.7 155.3 190.7 152.8 192.6C149.8 194.6 146.9 196.6 144 198.7C142.1 200.2 139.7 202.1 138.9 204.5C138.2 206.5 139 208.6 140.8 209.6C143.2 210.8 146.3 210.6 148.9 210.3C155.6 209.3 163 205.6 164.4 198.3C165.1 194.4 164.4 190.1 167 186.8C169.1 184.3 172.5 183.3 175.7 183.2C178.7 183.1 181.9 183.5 184.5 184.9C187.1 186.1 189.9 188.8 190.3 191.8C191 195.9 187.1 199.4 184.3 201.6C180.5 204.6 176.2 206.9 171.8 208.9C167.5 210.7 162.9 212 158.3 212.8C153.6 213.7 148.9 214.2 144.5 216C139.1 218.3 130.6 223.9 135.6 230.4C140.4 236.6 150.4 235.1 156.6 232.2C163.7 228.9 168.7 222.3 176.3 219.9C181 218.4 186 218.8 190.7 217.5C195.3 216.3 199.6 213.6 202.8 210.2C205.2 207.6 206.5 204.8 205.9 201.2C205.7 199.6 205.2 198 205.1 196.4C205 194.2 205.8 192.4 207.3 190.8C212.2 185.2 220.3 184.4 225.9 180C228.6 177.8 230 174.9 229.4 171.4C229.1 168.9 228.3 166.6 229.2 164.1C230 161.7 231.6 159.6 233.1 157.6C235.3 154.6 237.8 152 239.9 149C241.5 146.7 243.4 143.8 242.9 140.8C242.4 138 239.6 136.6 237 136C233.5 135.2 229.7 135.3 226.1 135.4C222.8 135.4 218.9 135.6 215.8 134.2C214.3 133.4 213.1 132 211.7 131C210.1 129.8 208.6 128.5 206.9 127.5C204 125.7 200.6 123.6 197.1 124C196.2 124.1 196.2 125.5 197.1 125.5C200.9 125.2 204.6 127.8 207.6 129.8C209.3 131 210.9 132.3 212.5 133.7C213.5 134.6 214.6 135.5 215.9 136C218.9 137.1 222.4 137.1 225.6 137.1C229.2 137.1 233 136.9 236.5 137.7C239.5 138.4 242.3 140.1 241.4 143.4C240.6 146.7 238.1 149.5 235.9 152C233.5 155 230.9 157.9 228.9 161.2C227.9 163.1 227.1 165.2 227.2 167.3C227.3 169.7 228.5 172.1 227.9 174.6C227.2 177.7 224.2 179.6 221.6 181C218.4 182.7 215.1 183.8 211.9 185.5C208.8 187.2 205.5 189.5 204.1 192.9C202.8 196 204 198.8 204.4 201.8C205 206 202.1 209.1 199 211.4C194.7 214.8 189.8 216.3 184.4 216.8C180.1 217.3 176 217.7 172.1 219.6C168.9 221.2 166.2 223.5 163.3 225.6C157 230.5 148.1 235.2 140 231.7C137.3 230.6 134.4 227.7 135.3 224.6C136.3 220.9 140.7 218.6 144 217.1C148.4 215.2 153.1 214.6 157.8 213.8C162.2 213 166.6 211.9 170.7 210.2C174.8 208.6 178.8 206.5 182.4 204C185.7 201.7 189.2 199 190.7 195.3C192.9 189.7 188.1 184.5 183.1 182.7C177.9 180.8 170.7 180.8 166.3 184.7C163.7 187.1 163.1 190.4 162.9 193.8C162.8 195.8 162.7 197.9 162 199.8C161.2 201.8 159.8 203.7 158 204.9C155.4 206.7 152.2 207.9 149 208.5C146.5 209 143 209.5 140.7 207.9C135.7 204.5 146.9 197.8 148.9 196.3C154 192.9 161.1 189 161.1 182C161.1 177.8 158.8 174.1 156.8 170.5C155.8 168.8 154.9 167.1 153.6 165.6C152.1 163.9 150.4 162.4 148.6 161.1C145.3 158.5 141.3 155.9 139.4 152C137.1 147.2 140.5 142.8 142.5 138.5C144.2 134.6 145.5 130.4 144.4 126.1C144.5 125.5 143.1 126 143.4 126.8Z" fill="#4E7583"/>
<path d="M200.201 50H116.301V183H200.201V50Z" fill="#F18A12"/>
<path d="M110.001 64.8H41.3008V168.4H110.001V64.8Z" fill="#F18A12"/>
<path d="M274.301 64.2H205.601V168.4H274.301V64.2Z" fill="#F18A12"/>
<path d="M158.201 158.9C185.501 158.9 207.601 136.9 207.601 109.8C207.601 82.7 185.501 60.7 158.201 60.7C130.901 60.7 108.801 82.7 108.801 109.8C108.801 136.9 130.901 158.9 158.201 158.9Z" stroke="white" stroke-width="3" stroke-miterlimit="10"/>
<path d="M180.7 153.4L215.6 206.6" stroke="white" stroke-width="3" stroke-miterlimit="10" stroke-linecap="round"/>
<path d="M158.3 85.9999C158.3 85.9999 151.7 102.8 137.7 103.9C137.7 103.9 144.4 106.1 141.6 111.6C141.6 111.6 147.6 117.4 145.9 119.3C145.9 119.3 150.5 130.8 144.6 134.5C142.9 135.6 140.6 135.5 138.8 134.6C136.2 133.2 132.9 130.1 135.8 123C135.8 123 127 115.1 132.3 107.9C132.9 107.1 125.8 99.7999 133.1 93.8999C133.1 93.8999 132.4 81.7999 146.6 85.6999C146.6 85.6999 149.2 73.6999 159.7 82.4999C159.7 82.4999 169.5 80.1999 172.2 88.4999C172.2 88.4999 178.6 91.6999 179.3 98.2999C179.3 98.2999 186.3 106.1 181.9 114.1C181.9 114.1 187.8 116.7 184.5 124.4C184.5 124.4 191.3 132.6 184.5 135.7C182.8 136.5 180.8 136.5 179 136C176.5 135.3 173.3 133.7 173.6 130C173.6 130 162.4 130.2 166.4 125L158.3 85.9999Z" fill="white"/>
<path d="M162.101 86.3C162.101 86.3 172.701 88.6 173.801 101.5C173.801 101.5 179.701 107.3 171.301 114.9C171.301 114.9 169.801 132.7 155.201 125C155.201 125 142.101 122.4 140.701 113.7C140.801 113.6 128.901 83.3 162.101 86.3Z" fill="#1D6485"/>
<path d="M75.1007 127C82.4007 127 88.3007 119.3 88.3007 109.8C88.3007 100.3 82.4007 92.6001 75.1007 92.6001C67.8007 92.6001 61.9007 100.3 61.9007 109.8C61.8007 119.3 67.7007 127 75.1007 127Z" fill="#1C6483"/>
<path d="M243.2 125.9C250.5 125.9 256.4 117.4 256.4 107C256.4 96.6 250.5 88 243.2 88C235.9 88 230 96.5 230 106.9C230 117.3 235.9 125.9 243.2 125.9Z" fill="#1C6483"/>
<path d="M68.4008 102.8L61.8008 113.5L66.0008 114.9" stroke="white" stroke-miterlimit="10" stroke-linecap="round" stroke-linejoin="round"/>
<path d="M60.2001 94.4C60.2001 94.4 56.2001 103.4 64.1001 99.8C64.1001 99.8 73.5001 101.7 73.5001 93.1C73.5001 93.1 75.9001 99.3 82.4001 97.6C82.4001 97.6 81.0001 105.7 86.3001 104.7C86.3001 104.7 85.5001 113.9 89.4001 112.8C89.4001 112.8 93.8001 111.4 91.2001 106.3C91.2001 106.3 93.6001 99.4 87.4001 96.8C87.4001 96.8 88.7001 89.1 80.9001 90.8C80.9001 90.8 75.5001 83.8 68.0001 89.7C68.1001 89.9 59.5001 88.2 60.2001 94.4Z" fill="white"/>
<path d="M63.5 118.3C63.5 118.3 65.3 121.7 72.1 118.3C72.1 118.3 71.1 122.8 67.9 122.6C64.6 122.3 63.5 118.3 63.5 118.3Z" fill="white"/>
<path d="M159 118.2C159 118.2 163.7 122.5 170.6 116.8" stroke="white" stroke-miterlimit="10" stroke-linecap="round"/>
<path d="M166.2 102.3L171.2 111.8L165.5 113.2" stroke="white" stroke-miterlimit="10" stroke-linecap="round" stroke-linejoin="round"/>
<path d="M159.101 83.9999C159.101 83.9999 153.401 107.5 139.001 111.3L135.601 97.9999L139.501 91.5999L152.601 83.8999H159.101V83.9999Z" fill="white"/>
<path d="M243.2 88.5C243.2 88.5 234.8 106.4 230 109.7C230 109.7 237.4 133.4 232.3 140.7H220C220 140.7 211.3 91.7 239.2 86.3C240.6 86.1 241.9 86.1 243.3 86.4H243.4V88.4H243.2V88.5Z" fill="white"/>
<path d="M243.2 88.5001C243.2 88.5001 251.6 106.4 256.4 109.7C256.4 109.7 248.6 133.4 253.8 140.7H265.9C265.9 140.7 272.9 90.5001 247.4 86.3001C246 86.1001 244.5 86.2001 243.2 86.5001V88.5001Z" fill="white"/>
<path d="M215.9 46.3C221.4 49.6 223.8 42.3 224.3 38.2C224.6 35.6 224.6 33.2 223.7 30.6C222.4 26.7 219.6 22.4 220.3 18.2C220.1 18.4 219.8 18.5 219.6 18.8C223.6 19 227.5 19.7 231.5 19.5C235.5 19.3 239.1 18 242.6 16.1C245.6 14.4 248.2 12 249.9 9.09997C251.6 5.99997 253.2 0.699974 257.9 1.59997C259.8 1.89997 261.7 3.49997 262.2 5.29997C262.7 6.79997 262.3 8.39997 262.3 9.79997C262.4 12.4 263.2 14.9 265.4 16.5C269.8 19.7 275.6 17.9 280.5 19.5C289.9 22.3 298.5 38.2 287.8 44.7C283.8 47.2 279.2 46.9 275 44.8C271.3 43.1 267.9 40.6 265.3 37.5C261.4 33.1 257.3 25.5 250.4 26.2C247.7 26.4 246.2 28.5 245.6 31.1C245.4 32.1 245.4 33.4 244.7 34.3C243.9 35.4 242 35.4 240.8 35C238.3 34.1 235.9 31 232.9 31.8C230.2 32.6 230.3 35.3 230.6 37.6C230.8 38.8 231.3 40.3 230.5 41.3C230.8 41.2 231.2 41.2 231.5 41.1C231.2 40.9 230.8 40.6 230.5 40.4C229.8 39.8 228.8 40.9 229.5 41.4C230 41.7 230.3 42 230.8 42.3C231.1 42.5 231.6 42.3 231.8 42.1C233.4 39.8 231.5 37.1 231.9 34.6C232.8 30.6 238.3 35.4 240.1 36.1C242.2 37 245.1 36.7 246.1 34.5C247.2 32.2 246.6 28.7 249.5 27.8C253 26.7 256.5 29.4 258.6 31.8C261.2 34.5 263.2 37.8 265.9 40.4C268.6 43.1 272.3 45.4 275.9 46.8C279.8 48.3 283.9 48.3 287.6 46.3C298.5 40.6 293.3 26.1 285.2 20.3C283.1 18.8 280.8 17.8 278.2 17.6C275.5 17.3 272.6 17.5 269.8 16.9C266.9 16.3 264.4 15 263.8 11.9C263 8.79997 264.4 5.49997 262.3 2.79997C260.4 0.299974 256.7 -0.900026 253.9 0.599974C250.7 2.29997 249.8 6.29997 248 9.09997C245.7 12.6 242 14.9 238.1 16.5C234.2 18 230.1 18.2 226 17.9C223.8 17.8 221.8 17.6 219.6 17.3C219.3 17.3 218.9 17.5 218.9 17.9C217.8 24.3 223.3 29.6 223 35.9C222.9 39.1 221.5 47.9 216.5 45C215.9 44.6 215.1 45.9 215.9 46.3Z" fill="#4E7583"/>
<path d="M25.4004 142.1C26.4004 143 26.3004 144.6 26.1004 145.8C25.6004 148 24.6004 149.9 23.6004 151.8C21.0004 156.7 17.6004 161.2 14.1004 165.6C11.6004 168.9 8.90039 172.1 6.10039 175.1C4.60039 176.6 3.40039 178.1 2.40039 180C0.800391 183.3 -0.0996094 187 -0.0996094 190.8C-0.0996094 194.3 0.70039 198.1 3.10039 200.8C4.20039 202.2 5.70039 203 7.30039 203.6C8.90039 204.2 10.7004 204.6 11.9004 205.9C15.1004 209.2 11.4004 212.6 10.9004 216.1C10.4004 219.1 12.8004 222.8 16.3004 221.2C19.4004 219.7 19.6004 215.4 20.3004 212.6C21.3004 208.4 23.9004 204.4 27.8004 202.4C33.7004 199.3 43.0004 202.7 47.3004 196.3C48.9004 193.8 48.0004 190.5 45.9004 188.5C44.3004 186.9 41.9004 186.5 39.7004 186.2C37.1004 186 34.3004 186.1 31.7004 186C29.6004 185.9 26.9004 185.9 25.3004 184.3C24.5004 183.5 24.4004 182.5 24.4004 181.5C24.4004 180.6 23.0004 180.6 22.9004 181.5C22.8004 186.5 27.7004 187.3 31.7004 187.4C36.0004 187.5 43.1004 186.4 45.6004 190.8C47.8004 194.4 45.0004 197.3 41.6004 198.5C38.2004 199.7 34.4004 199.3 30.9004 200C27.1004 200.7 23.9004 202.7 21.7004 205.8C19.4004 208.8 18.7004 212.2 17.8004 215.8C17.3004 217.4 16.8004 220 14.7004 220.3C12.1004 220.8 11.6004 217.2 12.2004 215.5C12.7004 213.9 13.7004 212.5 14.1004 211C14.6004 209.4 14.3004 207.8 13.5004 206.3C11.9004 203.3 8.40039 203.2 5.70039 201.8C2.20039 199.8 1.00039 195.3 0.900391 191.5C0.900391 187.8 1.70039 183.8 3.50039 180.4C4.40039 178.7 5.70039 177.6 6.90039 176.2C9.80039 173.1 12.4004 169.8 15.0004 166.6C18.3004 162.4 21.5004 158.1 24.0004 153.4C25.6004 150.6 28.0004 146.4 26.9004 143C26.7004 142.4 26.3004 141.9 25.9004 141.4C25.8004 140.5 24.8004 141.5 25.4004 142.1Z" fill="#4E7583"/>
</g>
<defs>
<clipPath id="clip0_1321_458">
<rect width="294" height="235" fill="white"/>
</clipPath>
</defs>
</svg>
