<svg width="313" height="223" viewBox="0 0 313 223" fill="none" xmlns="http://www.w3.org/2000/svg">
<g clip-path="url(#clip0_1321_480)">
<path d="M172.5 92.3C172.5 92.3 178.4 99.4 182.7 103.8C186.3 107.6 187.7 110 190 115.2C190.1 115.4 187.4 117.4 186.9 119C186.3 121 186.8 123.8 187.2 124.7C189 129.3 197.6 136.3 198.6 141.1L158.6 163.8L141 209C140.6 210.1 139.7 210.9 138.7 211.4C136.5 212.3 132.4 213.1 126.9 210.2C125.8 209.6 125.3 208.6 125.4 207.3L130.8 153.1C130.8 153.1 131 137.1 143 130.7L170.6 118.4L131.4 100L98.5997 112.1C97.2997 112.6 95.9997 112.4 94.8997 111.5C92.6997 109.9 89.3997 106.5 90.4997 101C90.6997 100 91.3997 99.3 92.1997 98.9L122.5 85.3C126 83.8 129.9 83 133.7 83.2C135.2 83.3 137 83.6 138.6 84.1C146.1 86.5 172.5 92.3 172.5 92.3Z" fill="#1C6483"/>
<path d="M209.6 168.9C209.6 168.9 216.2 146.9 226.2 154.9C226.2 154.9 226.4 132.9 237.4 144.4L242.5 151C242.5 151 245.4 144.5 256 160.6C256.7 161.6 256.7 162.9 255.9 163.8C254.8 165.2 252.5 165.7 246.9 160.2C246.9 160.2 245.1 162.1 242.4 161.1C242.4 161.1 243.9 170.4 235 165.2C235 165.2 232 166.2 230 166.3C230 166.3 231.4 177.2 221.7 168.7C221.8 168.6 218.3 165.9 209.6 168.9Z" fill="#1C6483"/>
<path d="M218.6 71.3C218.6 71.3 221.3 73.6 223 69.9C223 69.9 219.3 70 221.3 67.3L221.4 65.3C221.4 65.3 221 64.5 222.1 63.7L222.5 63.1C222.5 63.1 218 63.8 220.9 60.5L223.8 57.6C223.8 57.6 224 52.4 226 51.5C226 51.5 233.6 47.2 234 58C234.4 68.8 230.3 70.4 228.8 70.1C228.8 70.1 227.8 74.3 231.5 75.9C231.4 76.1 219.5 86.6 218.6 71.3Z" fill="#1C6483"/>
<path d="M165 31C165 31 164.8 35.2 169.3 39.7L168.8 45.5C168.8 45.5 175 47.9 177.3 44.4L176.8 39.6C176.8 39.6 179.2 39.1 181.3 37.1L173.4 37.2L165 31Z" fill="#1C6483"/>
<path d="M221.3 65.4C221.3 65.4 222.6 65.8 224.2 64.8C224.3 64.7 224.4 64.8 224.4 65C223.9 65.8 222.8 67.4 221.2 67.2L221.3 65.4Z" fill="white"/>
<path d="M226 59.0001C226.5 57.4001 226.3 55.8001 225.6 55.6001C224.9 55.4001 223.8 56.5001 223.3 58.1001C222.8 59.7001 223 61.3001 223.7 61.5001C224.5 61.7001 225.5 60.6001 226 59.0001Z" fill="white"/>
<path d="M227.7 48.7999C227.7 48.7999 222.1 52.5999 227.1 52.0999C227.1 52.0999 229.7 56.3999 231.6 53.7999C231.6 53.7999 228.7 58.3999 232.9 58.6999C232.9 58.6999 230.4 61.2999 232.5 63.7999C232.5 63.7999 229.9 66.2999 233 67.9999C233 67.9999 236.8 72.2999 238 66.7999C238 66.7999 243.1 62.5999 239.7 60.9999C239.7 60.9999 243.2 56.8999 238.9 55.3999C238.9 55.3999 238.9 50.3999 233.4 51.9999C233.4 51.9999 233 48.1999 230.1 49.8999C230.2 49.9999 230.2 47.3999 227.7 48.7999Z" fill="white"/>
<path d="M200.2 149.3L235.1 115.9" stroke="white" stroke-width="2" stroke-miterlimit="10"/>
<path d="M173 36.9L155.1 23.7L177.4 0.5L194.1 12.6M173 36.9L193.1 13.7L194.1 12.6L216.2 11.7L193.7 38L173 36.9Z" stroke="white" stroke-width="3" stroke-miterlimit="10"/>
<path d="M180.2 35.0001L196.7 15.1001" stroke="white" stroke-width="3" stroke-miterlimit="10"/>
<path d="M185 35.0001L201.5 15.1001" stroke="white" stroke-width="3" stroke-miterlimit="10"/>
<path d="M203.4 22.3999L198.2 29.0999L193.5 28.7999L198.8 22.5999L203.4 22.3999Z" fill="white"/>
<path d="M177.6 44.8999L186.5 65.5999L201.7 62.1999C201.7 62.1999 214 59.4999 218.2 70.9999C218.2 70.9999 204 89.9999 200.3 93.4999C189.4 103.8 182.5 103.8 182.5 103.8C179.7 99.3999 169.4 89.4999 169.4 89.4999C179.3 91.8999 190.2 84.6999 190.2 84.6999C167.5 88.6999 168.5 70.2999 168.5 70.2999L169 45.9999" stroke="white" stroke-width="3" stroke-miterlimit="10" stroke-linecap="round" stroke-linejoin="round"/>
<path d="M181.7 75.1999C181.8 74.6999 180.9 68.4999 187.5 65.3999" stroke="white" stroke-width="3" stroke-miterlimit="10"/>
<path d="M244.5 91.5999C244.5 91.5999 240 89.4999 237 108.4C234.4 124.2 226.4 138.5 214 148.7C213.7 149 213.3 149.3 213 149.6C213 149.6 193.4 161.3 210.5 168.8" stroke="white" stroke-width="3" stroke-miterlimit="10" stroke-linecap="round"/>
<path d="M211.7 150.3C211.7 150.3 217.1 145.8 224 150.9" stroke="white" stroke-width="3" stroke-miterlimit="10" stroke-linecap="round"/>
<path d="M189.2 146.5C216 160.9 187.5 125.6 187.5 125.6C187.5 125.6 180.7 116.4 199.6 111.1C199.6 111.1 228.8 103.9 231.6 76.6001C231.6 76.6001 267.9 73.2001 260.4 98.4001C260.4 98.4001 257.5 110 260.7 120.8C261.4 123 261.9 125.4 262 127.8C262.4 134.7 262.7 145.9 253.4 154.2L283.6 170.6L219.4 194.4L192.7 175L210.3 168.8" stroke="white" stroke-width="3" stroke-miterlimit="10" stroke-linecap="round" stroke-linejoin="round"/>
<path d="M94.4998 112.1L91.7998 114.3C91.0998 114.9 90.3998 115.5 89.7998 116C88.4998 117.2 85.6998 119 84.4998 113.3L70.5998 102.3C69.1998 101.2 68.6998 99.3999 69.1998 97.6999C69.8998 95.8999 71.9998 94.3999 78.0998 97.1999L89.6998 101.4" stroke="white" stroke-width="3" stroke-miterlimit="10" stroke-linecap="round"/>
<path d="M229.2 151.6C229.2 151.6 229.7 163.6 238.8 167.6" stroke="white" stroke-width="3" stroke-miterlimit="10" stroke-linecap="round" stroke-linejoin="round"/>
<path d="M218 159.5C218 159.5 216.5 165.3 221 169.3" stroke="white" stroke-width="3" stroke-miterlimit="10" stroke-linecap="round" stroke-linejoin="round"/>
<path d="M243.9 155.9C243.9 155.9 251.6 169.7 256.6 162.3" stroke="white" stroke-width="3" stroke-miterlimit="10" stroke-linecap="round" stroke-linejoin="round"/>
<path d="M126.6 210.5L125.5 215.4C125.2 216.7 125.6 217.9 126.4 218.9C127.7 220.4 130 222 133.7 220.7C135.2 220.1 136.4 218.9 136.8 217.2L138 212.2" stroke="white" stroke-width="3" stroke-miterlimit="10" stroke-linecap="round"/>
<path d="M254.8 70.0001C260.2 70.8001 259.7 64.4001 258.9 60.8001C258.3 58.7001 257.4 56.8001 256 55.1001C253.7 52.5001 250.1 50.1001 249.3 46.4001C249.2 46.7001 249 46.9001 248.9 47.2001C254.5 45.3001 260.1 43.9001 264.3 39.5001C266.3 37.3001 268.1 34.9001 268.8 31.9001C269.3 30.4001 269.3 28.8001 269.4 27.2001C269.5 25.6001 269.7 23.5001 270.9 22.3001C273.1 20.0001 277.1 21.1001 278.4 23.9001C279.5 26.2001 280.1 28.7001 282.7 30.0001C287.3 32.3001 292 28.4001 296.5 27.9001C305.4 26.8001 317.9 37.7001 310.1 46.2001C307.9 48.6001 304.9 49.6001 301.6 49.6001C298.5 49.5001 295.1 48.9001 292.2 47.7001C287.3 45.6001 281.7 40.4001 276 42.8001C273.9 43.7001 272.8 45.5001 273.1 47.7001C273.2 48.8001 273.6 49.7001 273.6 50.8001C273.5 52.3001 272 52.9001 270.7 53.0001C268.5 53.1001 265.6 51.5001 263.5 53.2001C261.7 54.7001 262.5 56.8001 263.6 58.4001C264.2 59.3001 265.1 60.3001 264.8 61.4001C265.1 61.3001 265.3 61.1001 265.6 61.0001C265.2 60.9001 264.8 60.9001 264.4 60.7001C263.6 60.5001 263.3 61.7001 264.1 61.9001C264.5 62.0001 264.9 62.1001 265.3 62.2001C265.6 62.2001 266 62.1001 266.1 61.8001C266.7 59.6001 264.4 58.0001 263.9 56.1001C262.9 52.5001 268.8 54.3001 270.5 54.4001C272.6 54.5001 275 53.2001 275 50.9001C275 48.6001 273.4 45.9001 276.1 44.3001C278.8 42.8001 282.2 43.9001 284.7 45.2001C287.7 46.7001 290.4 48.6001 293.6 49.7001C298.9 51.4001 305.8 52.2001 310.3 48.1001C314 44.7001 314.8 39.8001 312.4 35.4001C310.1 31.3001 305.7 28.2001 301.2 27.3001C299 26.8001 296.7 26.7001 294.5 27.4001C292 28.2001 289.6 29.4001 286.9 29.7001C283.6 30.1001 281.5 28.3001 280.3 25.3001C279.3 22.9001 278.4 20.9001 275.6 20.4001C273 19.8001 270.4 20.9001 269.3 23.3001C268.6 24.8001 268.5 26.4001 268.4 27.9001C268.3 29.6001 268.1 31.3001 267.5 32.9001C266.3 36.0001 264 38.8001 261.5 40.8001C259.1 42.8001 256.1 43.9001 253.1 44.9001C251.6 45.4001 250.1 45.9001 248.6 46.4001C248.3 46.5001 248.1 46.8001 248.2 47.2001C249.4 52.5001 255.6 54.9001 257.4 60.0001C258.3 62.4001 260.2 70.0001 255.4 69.3001C254.4 68.8001 254.1 70.0001 254.8 70.0001Z" fill="#F09C4D"/>
<path d="M140.9 73.6001C136 73.3001 131.5 71.8001 127.2 69.5001C122.9 67.3001 119.2 64.5001 114.3 63.9001C104.4 62.5001 95.1998 68.4001 85.7998 70.4001C81.5998 71.4001 77.1998 71.7001 72.7998 72.0001C68.5998 72.3001 64.2998 72.4001 60.2998 71.0001C56.8998 69.8001 54.8998 67.6001 53.1998 64.6001C51.6998 61.9001 50.5998 58.9001 48.8998 56.3001C47.4998 54.0001 45.6998 51.7001 43.0998 50.9001C40.4998 50.0001 37.5998 50.6001 35.4998 52.5001C31.2998 56.3001 30.8998 63.8001 34.9998 67.7001C37.6998 70.2001 41.3998 71.2001 44.9998 72.0001C48.4998 72.8001 53.3998 73.6001 55.4998 76.8001C57.2998 79.7001 55.1998 83.1001 53.0998 85.2001C50.3998 87.8001 46.9998 89.3001 43.3998 90.1001C39.6998 90.9001 35.7998 90.9001 32.4998 88.9001C28.4998 86.7001 26.1998 82.2001 24.8998 78.1001C23.3998 73.5001 23.3998 68.7001 24.5998 64.1001C25.5998 60.3001 27.2998 56.8001 26.9998 52.8001C26.7998 49.8001 25.5998 46.8001 23.2998 44.8001C20.6998 42.5001 17.2998 42.0001 13.8998 42.5001C6.7998 43.5001 0.399802 48.9001 1.4998 56.5001C2.4998 63.0001 9.8998 68.1001 8.2998 75.1001C7.2998 79.5001 4.2998 83.0001 5.0998 87.8001C5.7998 91.8001 8.6998 95.6001 12.1998 97.6001C18.5998 101.1 27.7998 97.5001 32.5998 104.2C36.0998 109.1 33.5998 116.7 38.7998 120.8C42.3998 123.6 47.0998 123.1 51.3998 123.7C55.8998 124.4 59.4998 126.9 62.7998 129.8C67.6998 134.2 73.4998 141.1 80.8998 140.1C88.0998 139.1 90.7998 131.9 94.4998 126.7C95.4998 125.3 96.5998 124.1 98.0998 123.1C99.5998 122.1 101.2 121.7 102.7 121.3C106.4 120.1 110.2 118.8 113.6 117.1C115.8 116 119 114.6 120 112.2C120.3 111.5 119.2 110.8 118.9 111.6C118.4 112.8 117.4 113.5 116.3 114.2C114.8 115.2 113.3 115.9 111.8 116.6C108.2 118.2 104.5 119.4 100.9 120.6C97.7998 121.6 95.5998 123.2 93.5998 125.7C91.5998 128.3 90.0998 131.3 88.0998 133.9C85.9998 136.6 82.9998 138.8 79.2998 138.8C75.5998 138.7 72.1998 136.4 69.4998 134.2C66.7998 131.9 64.2998 129.4 61.4998 127.1C57.9998 124.4 54.3998 122.6 49.9998 122.2C45.8998 121.8 40.6998 122 37.9998 118.2C36.2998 115.8 36.1998 112.5 35.7998 109.7C35.2998 106.6 34.2998 103.6 31.7998 101.5C29.1998 99.2001 25.7998 98.6001 22.3998 98.3001C18.7998 98.0001 14.9998 98.0001 11.8998 96.0001C7.8998 93.4001 5.1998 88.3001 6.3998 83.6001C7.3998 79.7001 9.9998 76.3001 9.5998 72.2001C9.2998 69.0001 7.5998 66.3001 5.8998 63.7001C4.1998 60.8001 2.3998 57.7001 2.5998 54.2001C2.8998 50.2001 5.3998 47.0001 8.7998 45.3001C11.9998 43.7001 16.2998 42.9001 19.6998 44.1001C22.7998 45.3001 24.6998 48.1001 25.3998 51.3001C25.7998 52.9001 25.7998 54.7001 25.4998 56.3001C25.1998 58.3001 24.2998 60.2001 23.7998 62.1001C22.4998 66.4001 22.0998 70.7001 22.6998 75.1001C23.9998 82.7001 28.5998 90.7001 36.6998 91.9001C43.1998 92.8001 50.8998 90.2001 55.0998 84.9001C56.6998 82.8001 57.9998 80.0001 56.8998 77.2001C55.4998 74.0001 51.8998 72.6001 48.7998 71.9001C45.0998 70.8001 41.0998 70.4001 37.6998 68.5001C34.7998 66.9001 33.1998 64.0001 33.1998 60.8001C33.2998 58.0001 34.4998 54.9001 36.7998 53.2001C39.1998 51.5001 42.5998 51.7001 44.7998 53.7001C46.9998 55.5001 48.3998 58.4001 49.5998 61.1001C50.8998 63.8001 52.0998 66.5001 53.9998 68.8001C58.6998 74.6001 67.5998 74.0001 74.2998 73.4001C78.4998 73.0001 82.6998 72.7001 86.7998 71.8001C91.4998 70.6001 96.0998 68.8001 100.8 67.2001C105.4 65.7001 110.5 64.7001 115.3 65.7001C119.9 66.8001 123.9 70.0001 128.3 72.0001C132.2 73.8001 136.2 75.0001 140.6 75.2001C141.7 74.8001 141.7 73.6001 140.9 73.6001Z" fill="#F19D4E"/>
<path d="M182.2 162.6C184 164.2 181.5 168.1 180.7 169.7C178.6 173.3 176.1 176.6 173.3 179.8C171.3 182.2 169.2 184.6 167 186.9C165.9 188.1 164.9 189.1 164.1 190.5C162.8 192.9 162.2 195.6 162.1 198.2C162 200.7 162.6 203.4 164.2 205.4C165.1 206.4 166.2 207 167.5 207.4C168.7 207.8 170.1 208.1 171.1 209C173.6 211.5 170.1 214.2 170.1 216.9C170.1 219.3 172.4 221.3 174.6 219.8C176.7 218.4 176.8 215.3 177.6 213.1C178.7 210 180.9 207 184.1 205.8C188.6 204.2 195.4 206 198.3 201.2C199.5 199.4 198.8 197 197.2 195.6C195.9 194.4 194.2 194.1 192.7 194C190.7 193.8 188.6 193.9 186.6 193.9C185.1 193.9 182.9 194 181.8 192.8C181.2 192.2 181.1 191.5 181.1 190.8C181.1 190 179.9 190 179.8 190.8C179.4 198.7 193.6 192.4 196.8 197.1C198.6 199.7 196.5 201.8 194 202.8C191.5 203.8 188.8 203.6 186.2 204C183.3 204.5 180.7 205.8 178.7 208.1C177 210.2 176.1 212.7 175.5 215.3C175.2 216.6 174.8 218.2 173.6 218.9C171.5 220.1 170.8 217.3 171.3 215.8C171.7 214.6 172.5 213.7 172.8 212.4C173.1 211.1 173 209.9 172.2 208.8C170.8 206.6 167.9 206.8 166 205.5C163.6 203.9 162.9 200.7 163.1 197.9C163.2 195.1 164.1 192.2 165.6 189.8C166.3 188.7 167.2 188 168.1 187.1C170.3 184.8 172.5 182.4 174.5 179.9C177.3 176.5 180 173 182 169.2C183.1 167.3 185 163.5 182.9 161.6C182.5 161.2 181.7 162.1 182.2 162.6Z" fill="#F19D4E"/>
<path d="M224.2 58.3L228.7 60.6" stroke="white" stroke-miterlimit="10" stroke-linecap="round" stroke-linejoin="round"/>
</g>
<defs>
<clipPath id="clip0_1321_480">
<rect width="313" height="223" fill="white"/>
</clipPath>
</defs>
</svg>
