<svg width="28" height="28" viewBox="0 0 28 28" fill="none" xmlns="http://www.w3.org/2000/svg">
<mask id="path-1-outside-1_1111_3362" maskUnits="userSpaceOnUse" x="0" y="0" width="28" height="28" fill="black">
<rect fill="white" width="28" height="28"/>
<path d="M16.2444 17.6505C12.3254 20.8044 6.4789 20.2895 3.2023 16.2988C0.0542023 12.5656 0.311191 7.1588 3.78053 3.74739C7.18562 0.335976 12.5824 0.0785114 16.3087 3.10372C20.292 6.3864 20.8702 12.2437 17.6579 16.2344C17.8506 16.4275 18.0434 16.6206 18.3003 16.8137C21.063 19.5815 23.8898 22.4136 26.6525 25.1813C26.9737 25.5032 27.1022 25.8894 26.9094 26.2756C26.7809 26.6618 26.524 26.9192 26.0742 26.9836C25.6888 27.048 25.4318 26.9192 25.1748 26.6618C24.0183 25.5032 22.8619 24.3446 21.7054 23.186C19.9065 21.3837 18.1719 19.6458 16.3729 17.8436C16.3087 17.7792 16.3087 17.7149 16.2444 17.6505ZM3.07381 10.3771C3.07381 14.3678 6.35041 17.6505 10.3337 17.6505C14.3813 17.6505 17.6579 14.3678 17.6579 10.3127C17.6579 6.32204 14.3813 3.03936 10.3337 3.03936C6.35041 3.03936 3.07381 6.32204 3.07381 10.3771Z"/>
</mask>
<path d="M16.2444 17.6505C12.3254 20.8044 6.4789 20.2895 3.2023 16.2988C0.0542023 12.5656 0.311191 7.1588 3.78053 3.74739C7.18562 0.335976 12.5824 0.0785114 16.3087 3.10372C20.292 6.3864 20.8702 12.2437 17.6579 16.2344C17.8506 16.4275 18.0434 16.6206 18.3003 16.8137C21.063 19.5815 23.8898 22.4136 26.6525 25.1813C26.9737 25.5032 27.1022 25.8894 26.9094 26.2756C26.7809 26.6618 26.524 26.9192 26.0742 26.9836C25.6888 27.048 25.4318 26.9192 25.1748 26.6618C24.0183 25.5032 22.8619 24.3446 21.7054 23.186C19.9065 21.3837 18.1719 19.6458 16.3729 17.8436C16.3087 17.7792 16.3087 17.7149 16.2444 17.6505ZM3.07381 10.3771C3.07381 14.3678 6.35041 17.6505 10.3337 17.6505C14.3813 17.6505 17.6579 14.3678 17.6579 10.3127C17.6579 6.32204 14.3813 3.03936 10.3337 3.03936C6.35041 3.03936 3.07381 6.32204 3.07381 10.3771Z" fill="#136284"/>
<path d="M16.2444 17.6505L16.5983 17.2973L16.281 16.9793L15.931 17.261L16.2444 17.6505ZM3.2023 16.2988L3.58877 15.9815L3.58454 15.9765L3.2023 16.2988ZM3.78053 3.74739L4.13111 4.10392L4.13441 4.10061L3.78053 3.74739ZM16.3087 3.10372L16.6267 2.71786L16.6238 2.71554L16.3087 3.10372ZM17.6579 16.2344L17.2684 15.9209L16.9872 16.2703L17.304 16.5877L17.6579 16.2344ZM18.3003 16.8137L18.6542 16.4605L18.6291 16.4354L18.6007 16.414L18.3003 16.8137ZM26.6525 25.1813L27.0063 24.8281L26.6525 25.1813ZM26.9094 26.2756L26.4621 26.0523L26.4462 26.084L26.435 26.1177L26.9094 26.2756ZM26.0742 26.9836L26.0034 26.4885L25.9919 26.4904L26.0742 26.9836ZM25.1748 26.6618L24.8209 27.015L25.1748 26.6618ZM21.7054 23.186L21.3516 23.5392L21.7054 23.186ZM16.3729 17.8436L16.7268 17.4904L16.3729 17.8436ZM17.6579 10.3127H18.1579H17.6579ZM15.931 17.261C12.2224 20.2455 6.68873 19.7571 3.58874 15.9815L2.81587 16.6161C6.26907 20.8219 12.4284 21.3633 16.5579 18.04L15.931 17.261ZM3.58454 15.9765C0.604825 12.4429 0.848194 7.33199 4.13109 4.1039L3.42996 3.39087C-0.225812 6.98561 -0.496421 12.6882 2.82007 16.6211L3.58454 15.9765ZM4.13441 4.10061C7.35717 0.87187 12.4648 0.627134 15.9935 3.4919L16.6238 2.71554C12.6999 -0.470111 7.01407 -0.199917 3.42665 3.39416L4.13441 4.10061ZM15.9907 3.48958C19.7621 6.59763 20.3094 12.143 17.2684 15.9209L18.0474 16.548C21.431 12.3444 20.8219 6.17517 16.6267 2.71787L15.9907 3.48958ZM17.304 16.5877C17.4956 16.7797 17.7111 16.9964 18 17.2135L18.6007 16.414C18.3756 16.2448 18.2056 16.0754 18.0118 15.8812L17.304 16.5877ZM17.9465 17.167C19.3278 18.5508 20.7251 19.9508 22.1225 21.3508C23.5199 22.7507 24.9173 24.1507 26.2986 25.5346L27.0063 24.8281C25.625 23.4442 24.2277 22.0443 22.8303 20.6443C21.4329 19.2443 20.0355 17.8444 18.6542 16.4605L17.9465 17.167ZM26.2986 25.5346C26.526 25.7624 26.5267 25.9228 26.4621 26.0523L27.3568 26.4988C27.6777 25.8559 27.4214 25.244 27.0063 24.8281L26.2986 25.5346ZM26.435 26.1177C26.3918 26.2477 26.3371 26.3262 26.2811 26.3757C26.2275 26.423 26.1454 26.4683 26.0034 26.4886L26.1451 27.4786C26.4528 27.4345 26.724 27.3189 26.9435 27.1249C27.1605 26.933 27.2986 26.6896 27.3839 26.4334L26.435 26.1177ZM25.9919 26.4904C25.8755 26.5099 25.8074 26.4968 25.7578 26.4775C25.7013 26.4555 25.6297 26.4097 25.5287 26.3085L24.8209 27.015C24.9769 27.1713 25.1622 27.3186 25.3948 27.4093C25.6343 27.5026 25.8875 27.5217 26.1566 27.4768L25.9919 26.4904ZM25.5287 26.3085C24.9504 25.7292 24.3722 25.1499 23.794 24.5707C23.2158 23.9914 22.6375 23.4121 22.0593 22.8328L21.3516 23.5392C21.9298 24.1185 22.508 24.6978 23.0862 25.2771C23.6644 25.8564 24.2427 26.4357 24.8209 27.015L25.5287 26.3085ZM22.0593 22.8328C21.1599 21.9316 20.2765 21.0466 19.3931 20.1616C18.5097 19.2765 17.6263 18.3915 16.7268 17.4904L16.0191 18.1968C16.9185 19.0979 17.8019 19.983 18.6853 20.868C19.5687 21.753 20.4521 22.6381 21.3516 23.5392L22.0593 22.8328ZM16.7268 17.4904C16.7577 17.5213 16.7721 17.5558 16.7561 17.5238C16.7399 17.4914 16.6934 17.3925 16.5983 17.2973L15.8906 18.0037C15.8597 17.9728 15.8453 17.9383 15.8613 17.9703C15.8775 18.0027 15.924 18.1015 16.0191 18.1968L16.7268 17.4904ZM2.57381 10.3771C2.57381 14.6431 6.07339 18.1505 10.3337 18.1505V17.1505C6.62742 17.1505 3.57381 14.0925 3.57381 10.3771H2.57381ZM10.3337 18.1505C14.6583 18.1505 18.1579 14.6431 18.1579 10.3127H17.1579C17.1579 14.0925 14.1043 17.1505 10.3337 17.1505V18.1505ZM18.1579 10.3127C18.1579 6.0439 14.6554 2.53936 10.3337 2.53936V3.53936C14.1071 3.53936 17.1579 6.60017 17.1579 10.3127H18.1579ZM10.3337 2.53936C6.07053 2.53936 2.57381 6.04964 2.57381 10.3771H3.57381C3.57381 6.59443 6.63028 3.53936 10.3337 3.53936V2.53936Z" fill="#136284" mask="url(#path-1-outside-1_1111_3362)"/>
</svg>
