<svg width="60" height="68" viewBox="0 0 60 68" fill="none" xmlns="http://www.w3.org/2000/svg">
<path d="M30.036 0.0052267C27.3741 -0.0554648 24.7273 0.41294 22.2556 1.38211C19.784 2.35127 17.5388 3.80106 15.6561 5.64378C13.7733 7.4865 12.292 9.68386 11.3018 12.1029C10.3116 14.522 9.83298 17.1125 9.89499 19.7178C9.83298 22.3231 10.3116 24.9137 11.3018 27.3327C12.292 29.7518 13.7733 31.9492 15.6561 33.7919C17.5388 35.6346 19.784 37.0844 22.2556 38.0536C24.7273 39.0227 27.3741 39.4911 30.036 39.4305C32.6979 39.4911 35.3447 39.0227 37.8164 38.0536C40.288 37.0844 42.5331 35.6346 44.4159 33.7919C46.2987 31.9492 47.78 29.7518 48.7702 27.3327C49.7604 24.9137 50.239 22.3231 50.177 19.7178C50.239 17.1125 49.7604 14.522 48.7702 12.1029C47.78 9.68386 46.2987 7.4865 44.4159 5.64378C42.5331 3.80106 40.288 2.35127 37.8164 1.38211C35.3447 0.41294 32.6979 -0.0554648 30.036 0.0052267ZM30.036 29.5741C28.6964 29.6375 27.358 29.426 26.1069 28.9531C24.8557 28.4802 23.7195 27.7564 22.7711 26.8282C21.8228 25.9 21.0832 24.7879 20.6001 23.5634C20.1169 22.3389 19.9007 21.029 19.9655 19.7178C19.9007 18.4067 20.1169 17.0968 20.6001 15.8723C21.0832 14.6478 21.8228 13.5357 22.7711 12.6075C23.7195 11.6793 24.8557 10.9555 26.1069 10.4826C27.358 10.0097 28.6964 9.79815 30.036 9.86153C31.3756 9.79815 32.714 10.0097 33.9651 10.4826C35.2163 10.9555 36.3525 11.6793 37.3009 12.6075C38.2492 13.5357 38.9887 14.6478 39.4719 15.8723C39.9551 17.0968 40.1713 18.4067 40.1065 19.7178C40.1713 21.029 39.9551 22.3389 39.4719 23.5634C38.9887 24.7879 38.2492 25.9 37.3009 26.8282C36.3525 27.7564 35.2163 28.4802 33.9651 28.9531C32.714 29.426 31.3756 29.6375 30.036 29.5741Z" fill="#136284"/>
<path d="M29.9195 45.0693C16.8602 45.0693 4.26736 51.7378 0.536133 67.604H11.4966C14.0618 61.1656 18.7259 54.4971 29.9195 54.4971C41.1132 54.4971 45.3108 60.0159 48.3425 67.604H59.5361C55.3385 50.818 42.9788 45.0693 29.9195 45.0693Z" fill="#136284"/>
</svg>
