<svg width="125" height="68" viewBox="0 0 125 68" fill="none" xmlns="http://www.w3.org/2000/svg">
<path d="M20.4197 0.00365917C18.5532 -0.0388304 16.6972 0.289096 14.9641 0.967602C13.2309 1.64611 11.6566 2.66109 10.3364 3.95117C9.01622 5.24124 7.97753 6.77959 7.28317 8.47317C6.58882 10.1667 6.25323 11.9804 6.29671 13.8043C6.25323 15.6282 6.58882 17.4419 7.28317 19.1354C7.97753 20.829 9.01622 22.3674 10.3364 23.6574C11.6566 24.9475 13.2309 25.9625 14.9641 26.641C16.6972 27.3195 18.5532 27.6474 20.4197 27.6049C22.2863 27.6474 24.1422 27.3195 25.8754 26.641C27.6085 25.9625 29.1828 24.9475 30.503 23.6574C31.8232 22.3674 32.8619 20.829 33.5563 19.1354C34.2506 17.4419 34.5862 15.6282 34.5427 13.8043C34.5862 11.9804 34.2506 10.1667 33.5563 8.47317C32.8619 6.77959 31.8232 5.24124 30.503 3.95117C29.1828 2.66109 27.6085 1.64611 25.8754 0.967602C24.1422 0.289096 22.2863 -0.0388304 20.4197 0.00365917ZM20.4197 20.7046C19.4804 20.749 18.5419 20.6009 17.6646 20.2698C16.7873 19.9387 15.9905 19.432 15.3255 18.7822C14.6605 18.1324 14.142 17.3538 13.8032 16.4965C13.4644 15.6393 13.3128 14.7222 13.3582 13.8043C13.3128 12.8864 13.4644 11.9693 13.8032 11.1121C14.142 10.2548 14.6605 9.47622 15.3255 8.8264C15.9905 8.17658 16.7873 7.66986 17.6646 7.33878C18.5419 7.00771 19.4804 6.8596 20.4197 6.90398C21.3591 6.8596 22.2975 7.00771 23.1748 7.33878C24.0522 7.66986 24.8489 8.17658 25.5139 8.8264C26.1789 9.47622 26.6975 10.2548 27.0363 11.1121C27.3751 11.9693 27.5266 12.8864 27.4812 13.8043C27.5266 14.7222 27.3751 15.6393 27.0363 16.4965C26.6975 17.3538 26.1789 18.1324 25.5139 18.7822C24.8489 19.432 24.0522 19.9387 23.1748 20.2698C22.2975 20.6009 21.3591 20.749 20.4197 20.7046Z" fill="#136284"/>
<path d="M20.6022 31.1882C11.6848 31.1882 3.08591 35.7271 0.538086 46.5263H8.02231C9.77393 42.1441 12.9587 37.6052 20.6022 37.6052C28.2456 37.6052 31.1119 41.3615 33.182 46.5263H40.8255C37.9592 35.101 29.5195 31.1882 20.6022 31.1882Z" fill="#136284"/>
<path d="M104.133 0.00365917C102.266 -0.0388304 100.41 0.289096 98.6769 0.967602C96.9438 1.64611 95.3695 2.66109 94.0493 3.95117C92.7291 5.24124 91.6904 6.77959 90.9961 8.47317C90.3017 10.1667 89.9661 11.9804 90.0096 13.8043C89.9661 15.6282 90.3017 17.4419 90.9961 19.1354C91.6904 20.829 92.7291 22.3674 94.0493 23.6574C95.3695 24.9475 96.9438 25.9625 98.6769 26.641C100.41 27.3195 102.266 27.6474 104.133 27.6049C105.999 27.6474 107.855 27.3195 109.588 26.641C111.321 25.9625 112.896 24.9475 114.216 23.6574C115.536 22.3674 116.575 20.829 117.269 19.1354C117.964 17.4419 118.299 15.6282 118.256 13.8043C118.299 11.9804 117.964 10.1667 117.269 8.47317C116.575 6.77959 115.536 5.24124 114.216 3.95117C112.896 2.66109 111.321 1.64611 109.588 0.967602C107.855 0.289096 105.999 -0.0388304 104.133 0.00365917ZM104.133 20.7046C103.193 20.749 102.255 20.6009 101.377 20.2698C100.5 19.9387 99.7034 19.432 99.0384 18.7822C98.3734 18.1324 97.8549 17.3538 97.5161 16.4965C97.1773 15.6393 97.0257 14.7222 97.0711 13.8043C97.0257 12.8864 97.1773 11.9693 97.5161 11.1121C97.8549 10.2548 98.3734 9.47622 99.0384 8.8264C99.7034 8.17658 100.5 7.66986 101.377 7.33878C102.255 7.00771 103.193 6.8596 104.133 6.90398C105.072 6.8596 106.01 7.00771 106.888 7.33878C107.765 7.66986 108.562 8.17658 109.227 8.8264C109.892 9.47622 110.41 10.2548 110.749 11.1121C111.088 11.9693 111.24 12.8864 111.194 13.8043C111.24 14.7222 111.088 15.6393 110.749 16.4965C110.41 17.3538 109.892 18.1324 109.227 18.7822C108.562 19.432 107.765 19.9387 106.888 20.2698C106.01 20.6009 105.072 20.749 104.133 20.7046Z" fill="#136284"/>
<path d="M104.315 31.1882C95.3977 31.1882 86.7988 35.7271 84.251 46.5263H91.7352C93.4868 42.1441 96.6716 37.6052 104.315 37.6052C111.959 37.6052 114.825 41.3615 116.895 46.5263H124.538C121.672 35.101 113.232 31.1882 104.315 31.1882Z" fill="#136284"/>
<path d="M63.8445 21.4773C61.978 21.4348 60.122 21.7627 58.3889 22.4412C56.6557 23.1197 55.0814 24.1347 53.7612 25.4248C52.441 26.7149 51.4023 28.2532 50.708 29.9468C50.0136 31.6404 49.678 33.454 49.7215 35.2779C49.678 37.1019 50.0136 38.9155 50.708 40.6091C51.4023 42.3026 52.441 43.841 53.7612 45.1311C55.0814 46.4211 56.6557 47.4361 58.3889 48.1146C60.122 48.7931 61.978 49.1211 63.8445 49.0786C65.7111 49.1211 67.567 48.7931 69.3002 48.1146C71.0333 47.4361 72.6076 46.4211 73.9278 45.1311C75.248 43.841 76.2867 42.3026 76.9811 40.6091C77.6754 38.9155 78.011 37.1019 77.9675 35.2779C78.011 33.454 77.6754 31.6404 76.9811 29.9468C76.2867 28.2532 75.248 26.7149 73.9278 25.4248C72.6076 24.1347 71.0333 23.1197 69.3002 22.4412C67.567 21.7627 65.7111 21.4348 63.8445 21.4773ZM63.8445 42.1783C62.9052 42.2226 61.9667 42.0745 61.0894 41.7434C60.2121 41.4124 59.4153 40.9057 58.7503 40.2558C58.0853 39.606 57.5668 38.8275 57.228 37.9702C56.8892 37.1129 56.7376 36.1958 56.783 35.2779C56.7376 34.36 56.8892 33.443 57.228 32.5857C57.5668 31.7284 58.0853 30.9499 58.7503 30.3C59.4153 29.6502 60.2121 29.1435 61.0894 28.8124C61.9667 28.4813 62.9052 28.3332 63.8445 28.3776C64.7839 28.3332 65.7224 28.4813 66.5997 28.8124C67.477 29.1435 68.2737 29.6502 68.9387 30.3C69.6037 30.9499 70.1223 31.7284 70.4611 32.5857C70.7999 33.443 70.9514 34.36 70.906 35.2779C70.9514 36.1958 70.7999 37.1129 70.4611 37.9702C70.1223 38.8275 69.6037 39.606 68.9387 40.2558C68.2737 40.9057 67.477 41.4124 66.5997 41.7434C65.7224 42.0745 64.7839 42.2226 63.8445 42.1783Z" fill="#136284"/>
<path d="M64.027 52.6619C55.1096 52.6619 46.5107 57.2007 43.9629 68H51.4471C53.1987 63.6177 56.3835 59.0789 64.027 59.0789C71.6704 59.0789 74.5367 62.8351 76.6068 68H84.2503C81.384 56.5747 72.9443 52.6619 64.027 52.6619Z" fill="#136284"/>
</svg>
