<svg width="179" height="33" viewBox="0 0 179 33" fill="none" xmlns="http://www.w3.org/2000/svg">
<path d="M0.440433 4.13102C0.14741 3.8269 0 3.45935 0 3.03397C0 2.62911 0.145612 2.27276 0.440433 1.96678C0.735254 1.6608 1.09839 1.50781 1.52803 1.50781C1.95768 1.50781 2.32261 1.6552 2.61563 1.94999C2.90866 2.24477 3.05607 2.59553 3.05607 3.00225C3.05607 3.44816 2.91045 3.82504 2.61563 4.12915C2.32261 4.43326 1.95768 4.58812 1.52803 4.58812C1.09839 4.58812 0.735254 4.43513 0.440433 4.13102ZM0.470993 8.09567H2.55811V24.1371H0.470993V8.09567Z" fill="#136284"/>
<path d="M23.5018 9.69063C24.6487 10.8604 25.2204 12.562 25.2204 14.799V24.1015H23.1333V15.0135C23.1333 13.3456 22.7324 12.075 21.9288 11.2019C21.1252 10.3287 19.9801 9.89026 18.4898 9.89026C16.8252 9.89026 15.5075 10.4033 14.5385 11.4313C13.5696 12.4594 13.0842 13.8754 13.0842 15.6852V24.1015H10.9971V8.05999H12.9943V11.019C13.5624 10.0433 14.3516 9.28577 15.3601 8.74658C16.3686 8.20738 17.5389 7.93872 18.8727 7.93872C20.8124 7.93872 22.3549 8.52269 23.5018 9.69063Z" fill="#136284"/>
<path d="M35.7089 23.1607C34.5045 22.4704 33.5589 21.4984 32.874 20.2483C32.1873 18.9983 31.8457 17.5915 31.8457 16.0243C31.8457 14.4609 32.1891 13.0578 32.874 11.8171C33.5589 10.5783 34.5045 9.61185 35.7089 8.91966C36.9134 8.22935 38.2814 7.88232 39.8077 7.88232C41.1397 7.88232 42.328 8.15099 43.3779 8.69018C44.4241 9.22937 45.2529 10.0167 45.8605 11.0522L44.3019 12.1492C43.7913 11.3563 43.146 10.763 42.3622 10.3656C41.5784 9.97006 40.7245 9.7723 39.8059 9.7723C38.6895 9.7723 37.6846 10.0316 36.7947 10.5503C35.9031 11.069 35.2074 11.8059 34.7076 12.763C34.2079 13.7183 33.958 14.806 33.958 16.0243C33.958 17.265 34.2079 18.3583 34.7076 19.3024C35.2056 20.2483 35.9013 20.9797 36.7947 21.4984C37.6864 22.017 38.6895 22.2764 39.8059 22.2764C40.7263 22.2764 41.5784 22.0842 42.3622 21.6961C43.146 21.3099 43.7913 20.7203 44.3019 19.9274L45.8605 21.0245C45.2529 22.0618 44.4205 22.8491 43.3617 23.3883C42.3046 23.9275 41.1182 24.1962 39.8059 24.1962C38.2796 24.198 36.9134 23.8529 35.7089 23.1607Z" fill="#136284"/>
<path d="M54.5715 23.1458C53.3778 22.4443 52.4358 21.4741 51.7509 20.2334C51.0642 18.9946 50.7227 17.5915 50.7227 16.0243C50.7227 14.4609 51.066 13.0578 51.7509 11.8171C52.4358 10.5783 53.3778 9.61185 54.5715 8.91966C55.7652 8.22935 57.1098 7.88232 58.5965 7.88232C60.0868 7.88232 61.4279 8.22748 62.6215 8.91966C63.817 9.61185 64.7518 10.5783 65.4277 11.8171C66.1037 13.0578 66.4416 14.4609 66.4416 16.0243C66.4416 17.5915 66.1037 18.9946 65.4277 20.2334C64.7518 21.4741 63.817 22.4443 62.6215 23.1458C61.4279 23.8473 60.085 24.198 58.5965 24.198C57.108 24.198 55.7652 23.8473 54.5715 23.1458ZM61.5501 21.4984C62.422 20.9815 63.1033 20.2427 63.5923 19.2875C64.0813 18.3322 64.3276 17.2445 64.3276 16.0243C64.3276 14.8041 64.0813 13.7183 63.5923 12.763C63.1015 11.8078 62.422 11.069 61.5501 10.5503C60.6782 10.0335 59.6949 9.7723 58.5965 9.7723C57.4981 9.7723 56.5148 10.0316 55.6429 10.5503C54.771 11.069 54.0843 11.8059 53.5864 12.763C53.0866 13.7183 52.8367 14.806 52.8367 16.0243C52.8367 17.2445 53.0866 18.3341 53.5864 19.2875C54.0843 20.2427 54.771 20.9815 55.6429 21.4984C56.5148 22.017 57.4981 22.2764 58.5965 22.2764C59.6949 22.2764 60.6782 22.017 61.5501 21.4984Z" fill="#136284"/>
<path d="M77.3011 8.77981C78.2718 8.23129 79.4709 7.95703 80.9 7.95703V10.0616L80.4021 10.0298C78.7752 10.0298 77.5024 10.5485 76.582 11.5859C75.6616 12.6232 75.2014 14.0766 75.2014 15.946V24.1198H73.1143V8.0783H75.1115V11.2202C75.6005 10.1418 76.3321 9.3302 77.3011 8.77981Z" fill="#136284"/>
<path d="M99.1351 8.90287C100.311 9.58573 101.231 10.5447 101.896 11.7854C102.563 13.0261 102.896 14.4385 102.896 16.0243C102.896 17.6307 102.563 19.0543 101.896 20.295C101.231 21.5357 100.316 22.4965 99.1495 23.1775C97.9846 23.8604 96.6668 24.1999 95.1963 24.1999C93.9433 24.1999 92.8126 23.9312 91.8041 23.3921C90.7938 22.8529 89.9669 22.0655 89.3215 21.0282V29.965H87.2344V8.0036H89.2316V11.1753C89.859 10.1193 90.6877 9.30587 91.7142 8.73682C92.7425 8.16778 93.9038 7.88232 95.1963 7.88232C96.6453 7.88232 97.9594 8.22189 99.1351 8.90287ZM97.9881 21.4984C98.869 20.9815 99.5611 20.2427 100.059 19.2875C100.559 18.3322 100.809 17.2445 100.809 16.0243C100.809 14.8041 100.559 13.722 100.059 12.7761C99.5611 11.8321 98.869 11.0932 97.9881 10.5652C97.1073 10.0372 96.1275 9.7723 95.0507 9.7723C93.9541 9.7723 92.969 10.0372 92.0971 10.5652C91.2252 11.0951 90.5385 11.8321 90.0406 12.7761C89.5408 13.722 89.2909 14.8041 89.2909 16.0243C89.2909 17.2445 89.5408 18.3341 90.0406 19.2875C90.5385 20.2427 91.2252 20.9815 92.0971 21.4984C92.969 22.017 93.9523 22.2764 95.0507 22.2764C96.1275 22.2764 97.1073 22.017 97.9881 21.4984Z" fill="#136284"/>
<path d="M111.896 23.1458C110.702 22.4443 109.76 21.4741 109.075 20.2334C108.388 18.9946 108.047 17.5915 108.047 16.0243C108.047 14.4609 108.39 13.0578 109.075 11.8171C109.76 10.5783 110.702 9.61185 111.896 8.91966C113.089 8.22935 114.434 7.88232 115.921 7.88232C117.411 7.88232 118.752 8.22748 119.946 8.91966C121.141 9.61185 122.076 10.5783 122.752 11.8171C123.428 13.0578 123.766 14.4609 123.766 16.0243C123.766 17.5915 123.428 18.9946 122.752 20.2334C122.076 21.4741 121.141 22.4443 119.946 23.1458C118.752 23.8473 117.409 24.198 115.921 24.198C114.434 24.198 113.089 23.8473 111.896 23.1458ZM118.874 21.4984C119.746 20.9815 120.428 20.2427 120.917 19.2875C121.405 18.3322 121.652 17.2445 121.652 16.0243C121.652 14.8041 121.405 13.7183 120.917 12.763C120.426 11.8078 119.746 11.069 118.874 10.5503C118.002 10.0335 117.019 9.7723 115.921 9.7723C114.822 9.7723 113.839 10.0316 112.967 10.5503C112.095 11.069 111.409 11.8059 110.911 12.763C110.411 13.7183 110.161 14.806 110.161 16.0243C110.161 17.2445 110.411 18.3341 110.911 19.2875C111.409 20.2427 112.095 20.9815 112.967 21.4984C113.839 22.017 114.822 22.2764 115.921 22.2764C117.019 22.2764 118.002 22.017 118.874 21.4984Z" fill="#136284"/>
<path d="M134.033 8.7615C135.003 8.21298 136.202 7.93872 137.631 7.93872V10.0433L137.134 10.0115C135.507 10.0115 134.234 10.5302 133.313 11.5675C132.393 12.6049 131.933 14.0583 131.933 15.9277V24.1015H129.846V8.05999H131.843V11.2019C132.332 10.1235 133.064 9.31189 134.033 8.7615Z" fill="#136284"/>
<path d="M169.849 32.0885H141.045V9.04315C141.045 4.04861 144.946 0 149.758 0H169.851C174.663 0 178.564 4.04861 178.564 9.04315V23.0473C178.563 28.0399 174.662 32.0885 169.849 32.0885Z" fill="#136284"/>
<path d="M157.065 9.47064C158.147 10.5248 158.692 12.0864 158.692 14.1517V24.1557H156.68V21.6389C156.209 22.4784 155.514 23.1314 154.597 23.6035C153.68 24.0736 152.591 24.3087 151.329 24.3087C149.594 24.3087 148.215 23.8796 147.19 23.0195C146.166 22.1594 145.653 21.0232 145.653 19.6127C145.653 18.2414 146.13 17.1369 147.088 16.2992C148.042 15.4596 149.567 15.0398 151.656 15.0398H156.594V14.0566C156.594 12.6666 156.222 11.6069 155.47 10.8811C154.723 10.1554 153.628 9.79155 152.188 9.79155C151.205 9.79155 150.257 9.96133 149.351 10.299C148.443 10.6367 147.665 11.1013 147.014 11.6946L146.069 10.0695C146.856 9.37363 147.803 8.8363 148.909 8.45756C150.011 8.07882 151.174 7.89038 152.398 7.89038C154.422 7.89038 155.979 8.41651 157.065 9.47064ZM154.699 21.7452C155.546 21.1818 156.177 20.3683 156.59 19.3049V16.6667H151.713C149.053 16.6667 147.721 17.6294 147.721 19.553C147.721 20.4933 148.064 21.2359 148.756 21.7769C149.446 22.3199 150.412 22.5904 151.654 22.5904C152.837 22.5904 153.853 22.3087 154.699 21.7452Z" fill="white"/>
<path d="M169.991 8.71876C170.966 8.16651 172.174 7.89038 173.614 7.89038V10.0061L173.11 9.97625C171.474 9.97625 170.191 10.4987 169.265 11.5416C168.339 12.5864 167.877 14.0473 167.877 15.9316V24.1557H165.779V8.01352H167.789V11.174C168.282 10.0901 169.015 9.27101 169.991 8.71876Z" fill="white"/>
</svg>
