<svg width="435" height="75" viewBox="0 0 435 75" fill="none" xmlns="http://www.w3.org/2000/svg">
<path d="M1.07072 9.65534C0.358361 8.94454 0 8.08548 0 7.09123C0 6.14496 0.353991 5.31207 1.07072 4.59691C1.78744 3.88175 2.67024 3.52417 3.71473 3.52417C4.75922 3.52417 5.64638 3.86866 6.35874 4.55766C7.07109 5.24665 7.42946 6.06647 7.42946 7.0171C7.42946 8.05931 7.07546 8.94018 6.35874 9.65098C5.64638 10.3618 4.75922 10.7237 3.71473 10.7237C2.67024 10.7237 1.78744 10.3661 1.07072 9.65534ZM1.14501 18.9219H6.21889V56.4153H1.14501V18.9219Z" fill="#136284"/>
<path d="M57.134 22.6496C59.9222 25.3838 61.312 29.3608 61.312 34.5893V56.3318H56.2381V35.0908C56.2381 31.1923 55.2635 28.2226 53.31 26.1818C51.3565 24.141 48.5726 23.1162 44.9497 23.1162C40.9028 23.1162 37.6994 24.3154 35.3438 26.7182C32.9882 29.121 31.8083 32.4307 31.8083 36.6606V56.3318H26.7344V18.8384H31.5897V25.7545C32.9708 23.4738 34.8893 21.7034 37.341 20.4431C39.7927 19.1829 42.6378 18.5549 45.8805 18.5549C50.5961 18.5549 54.3457 19.9198 57.134 22.6496Z" fill="#136284"/>
<path d="M86.8097 54.1342C83.8816 52.5208 81.5828 50.2488 79.9178 47.3272C78.2483 44.4055 77.418 41.1175 77.418 37.4545C77.418 33.8002 78.2527 30.5209 79.9178 27.6211C81.5828 24.7256 83.8816 22.4667 86.8097 20.8489C89.7378 19.2354 93.0635 18.4243 96.7739 18.4243C100.012 18.4243 102.901 19.0523 105.453 20.3125C107.997 21.5728 110.011 23.413 111.489 25.8332L107.7 28.3973C106.458 26.544 104.889 25.1573 102.984 24.2284C101.079 23.304 99.0027 22.8417 96.7695 22.8417C94.0556 22.8417 91.6126 23.4479 89.4493 24.6601C87.2817 25.8724 85.5904 27.5949 84.3754 29.832C83.1605 32.0646 82.553 34.6069 82.553 37.4545C82.553 40.3544 83.1605 42.9098 84.3754 45.1163C85.586 47.3272 87.2773 49.0366 89.4493 50.2488C91.617 51.4611 94.0556 52.0673 96.7695 52.0673C99.0071 52.0673 101.079 51.6181 102.984 50.7111C104.889 49.8084 106.458 48.4304 107.7 46.5771L111.489 49.1412C110.011 51.5658 107.988 53.406 105.414 54.6662C102.844 55.9265 99.9598 56.5544 96.7695 56.5544C93.0592 56.5588 89.7378 55.7521 86.8097 54.1342Z" fill="#136284"/>
<path d="M132.661 54.0994C129.76 52.4597 127.47 50.1921 125.804 47.2923C124.135 44.3968 123.305 41.1175 123.305 37.4545C123.305 33.8002 124.139 30.5209 125.804 27.6211C127.47 24.7256 129.76 22.4667 132.661 20.8489C135.563 19.2354 138.832 18.4243 142.446 18.4243C146.069 18.4243 149.33 19.231 152.231 20.8489C155.138 22.4667 157.41 24.7256 159.053 27.6211C160.697 30.5209 161.518 33.8002 161.518 37.4545C161.518 41.1175 160.697 44.3968 159.053 47.2923C157.41 50.1921 155.138 52.4597 152.231 54.0994C149.33 55.739 146.065 56.5588 142.446 56.5588C138.828 56.5588 135.563 55.739 132.661 54.0994ZM149.627 50.2488C151.746 49.0409 153.403 47.3141 154.591 45.0814C155.78 42.8487 156.379 40.3064 156.379 37.4545C156.379 34.6026 155.78 32.0646 154.591 29.832C153.398 27.5993 151.746 25.8724 149.627 24.6601C147.507 23.4522 145.117 22.8417 142.446 22.8417C139.776 22.8417 137.386 23.4479 135.266 24.6601C133.147 25.8724 131.477 27.5949 130.267 29.832C129.052 32.0646 128.444 34.6069 128.444 37.4545C128.444 40.3064 129.052 42.8531 130.267 45.0814C131.477 47.3141 133.147 49.0409 135.266 50.2488C137.386 51.4611 139.776 52.0673 142.446 52.0673C145.117 52.0673 147.507 51.4611 149.627 50.2488Z" fill="#136284"/>
<path d="M187.921 20.5222C190.28 19.2401 193.195 18.5991 196.67 18.5991V23.518L195.459 23.4439C191.504 23.4439 188.41 24.6562 186.172 27.0807C183.935 29.5053 182.816 32.9023 182.816 37.2717V56.376H177.742V18.8826H182.598V26.226C183.786 23.7055 185.565 21.8086 187.921 20.5222Z" fill="#136284"/>
<path d="M241.005 20.8096C243.864 22.4057 246.101 24.6471 247.718 27.5469C249.34 30.4468 250.148 33.7479 250.148 37.4545C250.148 41.2091 249.34 44.5363 247.718 47.4362C246.101 50.3361 243.877 52.5818 241.04 54.1735C238.208 55.7695 235.005 56.5632 231.43 56.5632C228.384 56.5632 225.635 55.9352 223.183 54.675C220.727 53.4147 218.717 51.5745 217.148 49.1499V70.0378H212.074V18.7078H216.93V26.121C218.455 23.6528 220.47 21.7515 222.965 20.4215C225.465 19.0915 228.288 18.4243 231.43 18.4243C234.953 18.4243 238.147 19.218 241.005 20.8096ZM238.217 50.2488C240.359 49.0409 242.041 47.3141 243.252 45.0814C244.467 42.8487 245.074 40.3064 245.074 37.4545C245.074 34.6026 244.467 32.0734 243.252 29.8625C242.041 27.656 240.359 25.9291 238.217 24.695C236.076 23.4609 233.694 22.8417 231.076 22.8417C228.41 22.8417 226.015 23.4609 223.896 24.695C221.776 25.9335 220.107 27.656 218.896 29.8625C217.681 32.0734 217.074 34.6026 217.074 37.4545C217.074 40.3064 217.681 42.8531 218.896 45.0814C220.107 47.3141 221.776 49.0409 223.896 50.2488C226.015 51.4611 228.406 52.0673 231.076 52.0673C233.694 52.0673 236.076 51.4611 238.217 50.2488Z" fill="#136284"/>
<path d="M272.021 54.0994C269.119 52.4597 266.829 50.1921 265.164 47.2923C263.494 44.3968 262.664 41.1175 262.664 37.4545C262.664 33.8002 263.499 30.5209 265.164 27.6211C266.829 24.7256 269.119 22.4667 272.021 20.8489C274.923 19.2354 278.192 18.4243 281.806 18.4243C285.429 18.4243 288.689 19.231 291.591 20.8489C294.497 22.4667 296.77 24.7256 298.413 27.6211C300.056 30.5209 300.878 33.8002 300.878 37.4545C300.878 41.1175 300.056 44.3968 298.413 47.2923C296.77 50.1921 294.497 52.4597 291.591 54.0994C288.689 55.739 285.424 56.5588 281.806 56.5588C278.192 56.5588 274.923 55.739 272.021 54.0994ZM288.986 50.2488C291.106 49.0409 292.762 47.3141 293.951 45.0814C295.14 42.8487 295.738 40.3064 295.738 37.4545C295.738 34.6026 295.14 32.0646 293.951 29.832C292.758 27.5993 291.106 25.8724 288.986 24.6601C286.867 23.4522 284.476 22.8417 281.806 22.8417C279.136 22.8417 276.745 23.4479 274.625 24.6601C272.506 25.8724 270.836 27.5949 269.626 29.832C268.411 32.0646 267.804 34.6069 267.804 37.4545C267.804 40.3064 268.411 42.8531 269.626 45.0814C270.836 47.3141 272.506 49.0409 274.625 50.2488C276.745 51.4611 279.136 52.0673 281.806 52.0673C284.476 52.0673 286.867 51.4611 288.986 50.2488Z" fill="#136284"/>
<path d="M325.835 20.478C328.195 19.196 331.11 18.5549 334.584 18.5549V23.4738L333.373 23.3997C329.418 23.3997 326.324 24.612 324.086 27.0365C321.849 29.4611 320.73 32.8581 320.73 37.2275V56.3318H315.656V18.8384H320.512V26.1818C321.7 23.6613 323.479 21.7644 325.835 20.478Z" fill="#136284"/>
<path d="M412.908 75H342.883V21.1364C342.883 9.46276 352.366 0 364.066 0H412.912C424.611 0 434.095 9.46276 434.095 21.1364V53.868C434.09 65.5372 424.607 75 412.908 75Z" fill="#136284"/>
<path d="M381.836 22.1354C384.467 24.5992 385.791 28.2491 385.791 33.0765V56.4586H380.901V50.576C379.756 52.5383 378.065 54.0646 375.836 55.1679C373.607 56.2668 370.959 56.8162 367.891 56.8162C363.673 56.8162 360.321 55.8132 357.83 53.8029C355.339 51.7927 354.094 49.137 354.094 45.8403C354.094 42.6352 355.252 40.0536 357.581 38.0956C359.902 36.1333 363.608 35.1522 368.686 35.1522H380.691V32.8541C380.691 29.6053 379.787 27.1284 377.96 25.4321C376.142 23.7358 373.48 22.8855 369.98 22.8855C367.589 22.8855 365.286 23.2823 363.083 24.0716C360.876 24.8609 358.984 25.9467 357.402 27.3334L355.103 23.5352C357.017 21.9087 359.321 20.6528 362.008 19.7675C364.687 18.8823 367.515 18.4419 370.491 18.4419C375.412 18.4419 379.197 19.6716 381.836 22.1354ZM376.085 50.8246C378.143 49.5076 379.677 47.6064 380.683 45.1208V38.9547H368.826C362.358 38.9547 359.12 41.2048 359.12 45.7007C359.12 47.8985 359.954 49.6341 361.637 50.8987C363.315 52.1677 365.662 52.8 368.682 52.8C371.557 52.8 374.027 52.1415 376.085 50.8246Z" fill="white"/>
<path d="M413.255 20.378C415.624 19.0873 418.561 18.4419 422.061 18.4419V23.3869L420.838 23.3172C416.861 23.3172 413.74 24.5382 411.49 26.9758C409.239 29.4178 408.116 32.8323 408.116 37.2366V56.4586H403.016V18.7297H407.902V26.1168C409.099 23.5832 410.882 21.6688 413.255 20.378Z" fill="white"/>
</svg>
