<svg width="247" height="45" viewBox="0 0 247 45" fill="none" xmlns="http://www.w3.org/2000/svg">
<path d="M0.607194 5.69553C0.203224 5.27627 0 4.76956 0 4.18311C0 3.62496 0.200745 3.13368 0.607194 2.71185C1.01364 2.29002 1.51427 2.0791 2.1066 2.0791C2.69892 2.0791 3.20202 2.2823 3.60599 2.6887C4.00996 3.0951 4.21319 3.57866 4.21319 4.13938C4.21319 4.75412 4.01244 5.2737 3.60599 5.69296C3.20202 6.11222 2.69892 6.3257 2.1066 6.3257C1.51427 6.3257 1.01364 6.11479 0.607194 5.69553ZM0.649326 11.1613H3.52669V33.2766H0.649326V11.1613Z" fill="#136284"/>
<path d="M32.3995 13.3593C33.9807 14.9721 34.7688 17.3179 34.7688 20.4018V33.2265H31.8915V20.6976C31.8915 18.3982 31.3388 16.6465 30.231 15.4428C29.1232 14.239 27.5445 13.6345 25.4899 13.6345C23.195 13.6345 21.3783 14.3419 20.0425 15.7591C18.7067 17.1764 18.0375 19.1286 18.0375 21.6236V33.2265H15.1602V11.1113H17.9136V15.1907C18.6968 13.8455 19.7848 12.8012 21.1751 12.0578C22.5655 11.3145 24.1789 10.9441 26.0178 10.9441C28.6919 10.9441 30.8184 11.7492 32.3995 13.3593Z" fill="#136284"/>
<path d="M49.2303 31.9307C47.5698 30.979 46.2662 29.6389 45.3219 27.9156C44.3752 26.1922 43.9043 24.2528 43.9043 22.0922C43.9043 19.9368 44.3777 18.0025 45.3219 16.2921C46.2662 14.5842 47.5698 13.2518 49.2303 12.2975C50.8908 11.3458 52.7768 10.8674 54.8809 10.8674C56.7173 10.8674 58.3555 11.2378 59.8029 11.9812C61.2453 12.7245 62.3878 13.81 63.2255 15.2375L61.0768 16.7499C60.3729 15.6568 59.4832 14.8388 58.4026 14.2909C57.3221 13.7457 56.1449 13.473 54.8784 13.473C53.3394 13.473 51.954 13.8305 50.7272 14.5456C49.4979 15.2606 48.5388 16.2766 47.8498 17.5961C47.1608 18.9131 46.8164 20.4126 46.8164 22.0922C46.8164 23.8027 47.1608 25.31 47.8498 26.6115C48.5363 27.9156 49.4954 28.9238 50.7272 29.6389C51.9564 30.354 53.3394 30.7115 54.8784 30.7115C56.1473 30.7115 57.3221 30.4466 58.4026 29.9115C59.4832 29.3791 60.3729 28.5663 61.0768 27.4732L63.2255 28.9856C62.3878 30.4157 61.2403 31.5011 59.7806 32.2445C58.3233 32.9878 56.6876 33.3582 54.8784 33.3582C52.7743 33.3608 50.8908 32.8849 49.2303 31.9307Z" fill="#136284"/>
<path d="M75.2329 31.9101C73.5873 30.943 72.2886 29.6055 71.3444 27.895C70.3976 26.1871 69.9268 24.2528 69.9268 22.0922C69.9268 19.9368 70.4001 18.0025 71.3444 16.2921C72.2886 14.5842 73.5873 13.2518 75.2329 12.2975C76.8785 11.3458 78.7323 10.8674 80.7819 10.8674C82.8365 10.8674 84.6853 11.3433 86.3309 12.2975C87.979 13.2518 89.2678 14.5842 90.1996 16.2921C91.1315 18.0025 91.5974 19.9368 91.5974 22.0922C91.5974 24.2528 91.1315 26.1871 90.1996 27.895C89.2678 29.6055 87.979 30.943 86.3309 31.9101C84.6853 32.8772 82.834 33.3608 80.7819 33.3608C78.7298 33.3608 76.8785 32.8772 75.2329 31.9101ZM84.8538 29.6389C86.0558 28.9264 86.9951 27.9079 87.6692 26.5909C88.3434 25.274 88.6829 23.7744 88.6829 22.0922C88.6829 20.4101 88.3434 18.9131 87.6692 17.5961C86.9927 16.2792 86.0558 15.2606 84.8538 14.5456C83.6518 13.8331 82.2962 13.473 80.7819 13.473C79.2676 13.473 77.912 13.8305 76.71 14.5456C75.508 15.2606 74.5613 16.2766 73.8748 17.5961C73.1858 18.9131 72.8413 20.4126 72.8413 22.0922C72.8413 23.7744 73.1858 25.2766 73.8748 26.5909C74.5613 27.9079 75.508 28.9264 76.71 29.6389C77.912 30.354 79.2676 30.7115 80.7819 30.7115C82.2962 30.7115 83.6518 30.354 84.8538 29.6389Z" fill="#136284"/>
<path d="M106.57 12.1038C107.908 11.3476 109.561 10.9695 111.532 10.9695V13.8709L110.845 13.8271C108.602 13.8271 106.847 14.5422 105.579 15.9723C104.31 17.4024 103.675 19.4061 103.675 21.9834V33.2519H100.798V11.1367H103.551V15.4682C104.225 13.9815 105.234 12.8626 106.57 12.1038Z" fill="#136284"/>
<path d="M136.67 12.2744C138.291 13.2158 139.56 14.5379 140.477 16.2483C141.397 17.9588 141.855 19.9059 141.855 22.0922C141.855 24.3069 141.397 26.2694 140.477 27.9799C139.56 29.6903 138.299 31.015 136.69 31.9538C135.084 32.8952 133.268 33.3634 131.24 33.3634C129.513 33.3634 127.954 32.993 126.564 32.2496C125.171 31.5063 124.031 30.4208 123.141 28.9907V41.3113H120.264V11.0346H123.017V15.4073C123.882 13.9514 125.025 12.83 126.44 12.0455C127.857 11.261 129.458 10.8674 131.24 10.8674C133.238 10.8674 135.049 11.3356 136.67 12.2744ZM135.089 29.6389C136.304 28.9264 137.258 27.9079 137.944 26.5909C138.633 25.274 138.978 23.7744 138.978 22.0922C138.978 20.4101 138.633 18.9182 137.944 17.6142C137.258 16.3126 136.304 15.2941 135.089 14.5662C133.875 13.8383 132.524 13.473 131.04 13.473C129.528 13.473 128.17 13.8383 126.968 14.5662C125.766 15.2967 124.819 16.3126 124.132 17.6142C123.443 18.9182 123.099 20.4101 123.099 22.0922C123.099 23.7744 123.443 25.2766 124.132 26.5909C124.819 27.9079 125.766 28.9264 126.968 29.6389C128.17 30.354 129.525 30.7115 131.04 30.7115C132.524 30.7115 133.875 30.354 135.089 29.6389Z" fill="#136284"/>
<path d="M154.263 31.9101C152.618 30.943 151.319 29.6055 150.375 27.895C149.428 26.1871 148.957 24.2528 148.957 22.0922C148.957 19.9368 149.43 18.0025 150.375 16.2921C151.319 14.5842 152.618 13.2518 154.263 12.2975C155.909 11.3458 157.763 10.8674 159.812 10.8674C161.867 10.8674 163.716 11.3433 165.361 12.2975C167.009 13.2518 168.298 14.5842 169.23 16.2921C170.162 18.0025 170.628 19.9368 170.628 22.0922C170.628 24.2528 170.162 26.1871 169.23 27.895C168.298 29.6055 167.009 30.943 165.361 31.9101C163.716 32.8772 161.864 33.3608 159.812 33.3608C157.763 33.3608 155.909 32.8772 154.263 31.9101ZM163.884 29.6389C165.086 28.9264 166.025 27.9079 166.7 26.5909C167.374 25.274 167.713 23.7744 167.713 22.0922C167.713 20.4101 167.374 18.9131 166.7 17.5961C166.023 16.2792 165.086 15.2606 163.884 14.5456C162.682 13.8331 161.326 13.473 159.812 13.473C158.298 13.473 156.942 13.8305 155.74 14.5456C154.538 15.2606 153.592 16.2766 152.905 17.5961C152.216 18.9131 151.872 20.4126 151.872 22.0922C151.872 23.7744 152.216 25.2766 152.905 26.5909C153.592 27.9079 154.538 28.9264 155.74 29.6389C156.942 30.354 158.298 30.7115 159.812 30.7115C161.326 30.7115 162.682 30.354 163.884 29.6389Z" fill="#136284"/>
<path d="M184.781 12.0784C186.119 11.3222 187.772 10.9441 189.743 10.9441V13.8455L189.056 13.8017C186.813 13.8017 185.058 14.5168 183.79 15.9469C182.521 17.377 181.886 19.3807 181.886 21.958V33.2265H179.009V11.1113H181.762V15.4428C182.436 13.9561 183.445 12.8372 184.781 12.0784Z" fill="#136284"/>
<path d="M234.16 44.2382H194.449V12.4672C194.449 5.58154 199.827 0 206.462 0H234.162C240.797 0 246.175 5.58154 246.175 12.4672V31.7736C246.172 38.6567 240.794 44.2382 234.16 44.2382Z" fill="#136284"/>
<path d="M216.535 13.0563C218.027 14.5095 218.778 16.6624 218.778 19.5098V33.3016H216.005V29.8318C215.356 30.9892 214.396 31.8895 213.133 32.5402C211.869 33.1884 210.367 33.5125 208.627 33.5125C206.235 33.5125 204.334 32.9209 202.922 31.7352C201.509 30.5494 200.803 28.983 200.803 27.0384C200.803 25.1479 201.46 23.6252 202.78 22.4703C204.096 21.3129 206.198 20.7341 209.078 20.7341H215.886V19.3786C215.886 17.4624 215.373 16.0014 214.337 15.0008C213.306 14.0003 211.797 13.4987 209.812 13.4987C208.456 13.4987 207.15 13.7328 205.901 14.1983C204.649 14.6639 203.576 15.3043 202.679 16.1223L201.375 13.8819C202.461 12.9225 203.767 12.1818 205.291 11.6596C206.81 11.1375 208.414 10.8777 210.101 10.8777C212.892 10.8777 215.038 11.603 216.535 13.0563ZM213.274 29.9784C214.441 29.2016 215.311 28.0802 215.881 26.614V22.977H209.157C205.489 22.977 203.653 24.3043 203.653 26.9561C203.653 28.2525 204.126 29.2762 205.08 30.0221C206.032 30.7706 207.363 31.1436 209.075 31.1436C210.706 31.1436 212.106 30.7552 213.274 29.9784Z" fill="white"/>
<path d="M234.356 12.0197C235.699 11.2584 237.364 10.8777 239.349 10.8777V13.7945L238.656 13.7533C236.4 13.7533 234.631 14.4735 233.354 15.9114C232.078 17.3518 231.441 19.3657 231.441 21.9636V33.3016H228.549V11.0474H231.32V15.4046C231.999 13.9102 233.01 12.7811 234.356 12.0197Z" fill="white"/>
</svg>
